<?xml version="1.0" standalone="no"?>
<!DOCTYPE svg PUBLIC "-//W3C//DTD SVG 1.1//EN" "http://www.w3.org/Graphics/SVG/1.1/DTD/svg11.dtd" >
<svg xmlns="http://www.w3.org/2000/svg">
<metadata></metadata>
<defs>
<font id="swi-boldregular" horiz-adv-x="1024" >
<font-face units-per-em="2048" ascent="1638" descent="-410" />
<missing-glyph horiz-adv-x="512" />
<glyph horiz-adv-x="0" />
<glyph unicode="&#xd;" horiz-adv-x="0" />
<glyph horiz-adv-x="0" />
<glyph horiz-adv-x="0" />
<glyph unicode=" "  horiz-adv-x="512" />
<glyph unicode="&#x09;" horiz-adv-x="512" />
<glyph unicode="&#xa0;" horiz-adv-x="512" />
<glyph unicode="!" horiz-adv-x="468" d="M117 1366h311l-104 -1051h-103zM137 94q0 121 139 121q135 0 136 -115q-1 -120 -136 -120q-74 0 -106.5 27.5t-32.5 86.5z" />
<glyph unicode="&#x22;" horiz-adv-x="684" d="M106 1366h175l-29 -549h-117zM406 1366h172l-29 -549h-117z" />
<glyph unicode="#" horiz-adv-x="1228" d="M63 420l21 143h227l41 266h-225l20 144h228l61 393h160l-61 -393h268l61 393h162l-61 -393h221l-23 -144h-221l-41 -266h223l-20 -143h-225l-64 -420h-162l66 420h-268l-66 -420h-160l66 420h-228zM471 563h270l39 266h-268z" />
<glyph unicode="$" horiz-adv-x="1075" d="M102 59v338h93l106 -284q41 -6 64.5 -8.5t58.5 -2.5h35v490l-119 82q-70 47 -108.5 84t-67.5 84q-45 78 -45 174q0 170 127 270q29 23 55.5 38t57 26.5t68.5 17.5t89 10v140h100v-134q35 -4 59.5 -8t45 -7t40 -6t42.5 -9l110 -27l35 -6v-332h-90l-100 273q-20 4 -30.5 6 t-41.5 4l-59 2h-11v-459l127 -84q78 -53 115 -83t62 -64q29 -41 44 -97.5t15 -113.5q0 -166 -108.5 -265.5t-309.5 -117.5v-164h-102v164q-96 16 -169 30.5t-151 30.5zM352 1090q0 -57 28 -97.5t103 -93.5l33 -22v393q-78 -16 -121 -62.5t-43 -117.5zM561 106 q80 10 124 61.5t44 135.5q0 66 -32.5 115t-110.5 96l-25 14v-422z" />
<glyph unicode="%" horiz-adv-x="1466" d="M20 981q0 199 84 307.5t238 108.5q143 0 221 -98.5t78 -278.5q0 -195 -85 -302.5t-239 -105.5q-141 0 -219 97.5t-78 271.5zM203 995q0 -160 30.5 -236.5t96.5 -76.5t97.5 77t31.5 238q0 168 -30.5 248t-96.5 80q-68 0 -98.5 -78t-30.5 -252zM250 -41l856 1448h117 l-856 -1448h-117zM836 348q0 199 84 307.5t237 108.5q143 0 221 -98.5t78 -278.5q0 -193 -84.5 -300t-238.5 -107q-141 0 -219 97t-78 271zM1018 365q0 -160 30.5 -237t96.5 -77t97.5 76t31.5 238q0 170 -30.5 248.5t-96.5 78.5q-68 0 -98.5 -76.5t-30.5 -250.5z" />
<glyph unicode="&#x26;" horiz-adv-x="1466" d="M49 332q0 227 303 336l-59 63q-66 70 -93.5 137.5t-27.5 139.5q0 150 97.5 233.5t275.5 83.5q158 0 243.5 -69.5t85.5 -196.5q1 -158 -126 -254q-16 -12 -29.5 -21.5t-27 -17.5t-32 -17.5t-45.5 -23.5l392 -426q35 41 48 99.5t13 156.5v12v70v12l-172 62v63h508v-61 l-172 -64v-10v-49q0 -119 -36 -210t-110 -167l82 -86l166 -70v-57h-389l-63 72q-84 -47 -167 -68.5t-188 -21.5q-106 0 -194 25.5t-150.5 71.5t-97.5 110.5t-35 142.5zM313 377q0 -127 79 -201t210 -74q66 0 114 11.5t95 36.5l-399 448q-47 -35 -73 -92t-26 -129zM406 1065 q0 -59 21.5 -108.5t86.5 -118.5l43 -47q72 59 102.5 123.5t30.5 148.5q0 76 -36 118t-99 42q-72 0 -110.5 -41t-38.5 -117z" />
<glyph unicode="'" horiz-adv-x="387" d="M106 1366h175l-29 -549h-117z" />
<glyph unicode="(" horiz-adv-x="507" d="M39 492q0 295 92 537.5t272 416.5l64 -35q-49 -66 -87 -160t-64.5 -212.5t-40 -260t-13.5 -301.5q0 -307 52.5 -533.5t152.5 -361.5l-64 -39q-188 199 -276 429.5t-88 519.5z" />
<glyph unicode=")" horiz-adv-x="507" d="M39 -422q98 131 150.5 373t52.5 561q0 307 -51.5 533.5t-151.5 361.5l63 39q186 -199 275.5 -429.5t89.5 -518.5q0 -295 -92 -538t-273 -417z" />
<glyph unicode="*" horiz-adv-x="714" d="M39 924v120l237 -26l-196 149l80 86l162 -200l-29 252h123l-29 -246l162 194l80 -86l-195 -149l238 26v-120l-238 24l195 -147l-80 -84l-162 192l29 -247h-123l29 247l-162 -192l-80 84l196 147z" />
<glyph unicode="+" d="M68 610v146h366v348h156v-348h366v-146h-366v-348h-156v348h-366z" />
<glyph unicode="," horiz-adv-x="419" d="M68 111q0 57 36.5 89.5t102.5 32.5q72 0 109.5 -47t37.5 -135q0 -238 -248 -295l-26 76q37 16 60.5 32.5t39 36t22.5 44t9 57.5q-10 -2 -18.5 -2h-12.5q-49 0 -80.5 30.5t-31.5 80.5z" />
<glyph unicode="-" horiz-adv-x="489" d="M20 449v182h447v-182h-447z" />
<glyph unicode="." horiz-adv-x="450" d="M117 106q0 127 135 127q74 0 107.5 -30.5t33.5 -98.5q0 -124 -135 -124q-76 0 -108.5 29.5t-32.5 96.5z" />
<glyph unicode="/" horiz-adv-x="499" d="M10 -449l332 1897h143l-327 -1897h-148z" />
<glyph unicode="0" horiz-adv-x="1075" d="M49 606q0 346 132 532.5t374 186.5q227 0 349 -169t122 -480q0 -166 -34 -298t-99.5 -222t-159.5 -138.5t-213 -48.5q-225 0 -348 166t-123 471zM324 631q0 -297 51 -433.5t162 -136.5q113 0 164 135.5t51 432.5q0 309 -50 451.5t-161 142.5q-115 0 -166 -138.5 t-51 -453.5z" />
<glyph unicode="1" horiz-adv-x="1075" d="M78 1010v71q94 29 171 56.5t138.5 56.5t112.5 61.5t96 69.5h104v-1196l224 -72v-57h-713v57l223 72v946z" />
<glyph unicode="2" horiz-adv-x="1075" d="M59 0v98l9 8q2 2 4 3q29 29 85 87t138 148q72 78 120 132t77 87q78 92 122.5 200.5t44.5 201.5q0 113 -72.5 180t-193.5 67q-29 0 -52.5 -3t-57.5 -13l-101 -268h-88v327l27 9q152 33 248 47t168 14q90 0 166.5 -25.5t132 -70.5t87 -106.5t31.5 -133.5q0 -68 -16 -125 t-60 -119.5t-121 -139.5t-200 -181q-41 -37 -70.5 -61.5t-56.5 -46t-55.5 -43t-65.5 -50.5h512l92 185h80l-32 -408h-902z" />
<glyph unicode="3" horiz-adv-x="1075" d="M68 57v340h84l108 -293q14 -4 21.5 -6t29.5 -4l49 -4h31q147 0 233.5 74t86.5 196q0 123 -75 193t-208 70h-53v100h24q131 0 201 62.5t70 181.5q0 236 -267 235q-33 0 -67.5 -3t-63.5 -7l-104 -274h-90v333l22 4q143 27 256 43.5t179 16.5q193 0 301 -80t108 -221 q0 -92 -44 -164t-126 -113q-25 -12 -46 -21t-45 -15.5t-52.5 -11.5t-67.5 -11q51 -2 84 -4t57.5 -6t46 -11.5t50.5 -17.5q86 -31 135 -106.5t49 -174.5q0 -84 -37 -153.5t-104.5 -118.5t-162.5 -76.5t-212 -27.5q-53 0 -108.5 5t-108.5 15t-100.5 24.5t-83.5 30.5z" />
<glyph unicode="4" horiz-adv-x="1075" d="M10 346v107l699 872h137v-784h192v-195h-192v-217l172 -72v-57h-580v57l172 72v217h-600zM207 541h403v501q-23 -33 -32 -45q-8 -10 -33 -42.5t-68 -86.5l-133 -166l-119 -139z" />
<glyph unicode="5" horiz-adv-x="1075" d="M98 59v338h88l107 -293q41 -10 61.5 -12t48.5 -2q150 0 238 85t88 231q0 147 -91 221.5t-271 74.5q-66 0 -122.5 -7t-111.5 -23v633h832v-226h-709v-274q66 16 116 23.5t115 7.5q248 0 383.5 -106.5t135.5 -305.5q0 -98 -37 -180t-101.5 -140.5t-154.5 -90t-199 -31.5 q-117 0 -227.5 20.5t-188.5 56.5z" />
<glyph unicode="6" horiz-adv-x="1075" d="M59 526q0 184 47.5 331t134.5 248t213.5 155.5t286.5 54.5q70 0 138.5 -8.5t128.5 -22.5l-15 -82q-33 6 -52 8t-54 2q-256 0 -396.5 -124.5t-152.5 -364.5q74 33 138.5 47t135.5 14q92 0 167 -26.5t127 -76.5t81 -121t29 -157q0 -98 -34 -179t-95.5 -137t-148.5 -87 t-193 -31q-238 0 -362 142.5t-124 414.5zM334 522q0 -248 50 -354.5t169 -106.5q98 0 143 74t45 238q0 154 -54 221.5t-177 67.5q-102 0 -176 -27v-21v-92z" />
<glyph unicode="7" horiz-adv-x="1075" d="M117 805v500h907v-88l-12 -29l-107 -266q-16 -39 -47 -114t-78 -190q-43 -104 -73.5 -173.5t-47.5 -108.5l-131 -305l-12 -31h-330l25 33q39 51 81 110.5t83 121l81 121.5t74 116q74 123 155 264t142 272l15 31h-547l-96 -264h-82z" />
<glyph unicode="8" horiz-adv-x="1075" d="M59 295q0 113 73 196.5t239 159.5l-37 23q-205 125 -205 311q0 76 30.5 139.5t88 107.5t137.5 68.5t178 24.5q186 0 294 -81t108 -218q0 -104 -61.5 -173t-211.5 -130l84 -51q63 -39 106.5 -76t71 -77t40 -85t12.5 -98q0 -170 -126 -267.5t-343 -97.5q-227 0 -352.5 85 t-125.5 239zM293 317q0 -117 62.5 -181t179.5 -64q104 0 165.5 54t61.5 146q0 35 -10.5 64t-37 58.5t-71.5 64.5t-113 82l-98 67q-76 -78 -107.5 -144.5t-31.5 -146.5zM365 1053q0 -39 6 -67t25.5 -52.5t54 -51t92.5 -63.5l86 -55q70 66 97.5 122t27.5 132 q0 102 -52.5 159.5t-144.5 57.5q-88 0 -140 -50t-52 -132z" />
<glyph unicode="9" horiz-adv-x="1075" d="M59 885q0 102 33 184t94.5 138.5t148.5 87t195 30.5q236 0 361 -145.5t125 -417.5q0 -182 -56.5 -340t-158.5 -258q-180 -174 -471 -174q-63 0 -131 7t-129 23l12 82h12h53q145 0 239.5 22.5t168.5 76.5q41 31 71.5 64.5t52 76.5t35 98.5t21.5 126.5q-78 -35 -146.5 -51 t-139.5 -16q-90 0 -162 27.5t-122 77.5t-78 121t-28 159zM334 930q0 -156 55 -227.5t176 -71.5q90 0 176 24v21q0 68 -1 113t-2 79.5t-5 65.5t-10 67q-12 88 -59 160q-49 72 -138 72q-92 0 -142 -79t-50 -224z" />
<glyph unicode=":" horiz-adv-x="479" d="M147 106q0 127 136 127q72 0 105.5 -30.5t33.5 -98.5q0 -124 -135 -124q-76 0 -108 29.5t-32 96.5zM147 893q0 127 136 127q139 0 139 -131q0 -125 -133 -125q-78 0 -110 29.5t-32 99.5z" />
<glyph unicode=";" horiz-adv-x="450" d="M98 111q0 57 36 89.5t102 32.5q72 0 109.5 -47t37.5 -135q0 -238 -246 -295l-28 76q72 33 100.5 69t30.5 101q-10 -2 -17.5 -2h-13.5q-49 0 -80 30.5t-31 80.5zM109 893q0 127 135 127q139 0 139 -131q0 -125 -133 -125q-78 0 -109.5 29.5t-31.5 99.5z" />
<glyph unicode="&#x3c;" d="M68 608v137l888 418v-157l-720 -330l718 -330l2 -156z" />
<glyph unicode="=" d="M68 473v137h888v-137h-888zM68 788v138h888v-138h-888z" />
<glyph unicode="&#x3e;" d="M68 190v158l720 330l-718 330l-2 155l888 -420v-135z" />
<glyph unicode="?" horiz-adv-x="919" d="M68 969v329q45 14 102 26.5t115.5 22t113 14.5t97.5 5q133 0 234 -50t142 -132q33 -72 33 -160q0 -96 -34.5 -172t-114.5 -154l-201 -194q-25 -25 -40 -43.5t-24.5 -35.5t-12.5 -36.5t-3 -44.5v-49h-98l-8 67l-2 25q-2 14 -2 21.5v9.5v4q0 20 11 49t30 61l24 41l109 191 q39 68 55 126t16 126q0 123 -55 180t-172 57q-41 0 -72.5 -3t-54.5 -13l-104 -268h-84zM293 92q0 113 135 113q129 0 129 -113q0 -112 -133 -112q-70 0 -100.5 26.5t-30.5 85.5z" />
<glyph unicode="@" horiz-adv-x="1501" d="M68 676q0 150 55 279.5t150.5 225t225.5 149.5t279 54q139 0 258 -46t205 -127t135 -191.5t49 -239.5q0 -96 -27.5 -183t-73.5 -153.5t-106.5 -106.5t-125.5 -40q-63 0 -103.5 37t-46.5 98q-47 -70 -112.5 -107.5t-143.5 -37.5q-61 0 -114.5 24.5t-91.5 68.5t-59.5 104.5 t-21.5 131.5q0 86 28 161t77 131.5t114.5 89t139.5 32.5q162 0 223 -149l25 125h112l-82 -426q-6 -31 -10 -56.5t-4 -38.5q0 -43 20.5 -67.5t55.5 -24.5q43 0 84 32t72.5 86t50 124t18.5 143q0 111 -40 203t-111.5 158.5t-171 103.5t-218.5 37q-127 0 -237.5 -47 t-192.5 -128t-128 -191.5t-46 -239.5q0 -94 26.5 -181t74 -160t115 -128t147.5 -86q109 -41 258 -41q117 0 218 22.5t206 69.5l30 -102q-207 -94 -456 -95q-160 0 -294 52.5t-230.5 145.5t-150.5 222t-54 283zM526 621q0 -98 51.5 -159t133.5 -61q49 0 91 25t73.5 67t49 100 t17.5 126q0 90 -48 143t-126 53q-49 0 -93 -23.5t-77 -63.5t-52.5 -93t-19.5 -114z" />
<glyph unicode="A" horiz-adv-x="1359" d="M-49 0v57l155 72l553 1257h103l491 -1257l156 -72v-57h-592v57l156 72l-142 397l-419 -2l-160 -395l158 -72v-57h-459zM446 623h353l-107 295q-12 35 -27.5 87t-23.5 89z" />
<glyph unicode="B" horiz-adv-x="1232" d="M49 0v57l172 72v1108l-172 72v57h629q117 0 191.5 -21.5t134.5 -74.5q104 -92 104 -230q0 -141 -96.5 -226t-284.5 -107q217 -8 329.5 -96.5t112.5 -248.5q0 -86 -38.5 -159.5t-104.5 -118.5q-35 -23 -73 -39t-83 -26.5t-101 -14.5t-126 -4h-594zM487 92h93 q88 0 137 14.5t92 51.5q86 76 86 207q0 137 -82 211.5t-231 74.5h-95v-559zM487 743h84q123 0 193 72t70 199q0 125 -68 192.5t-193 67.5h-86v-531z" />
<glyph unicode="C" horiz-adv-x="1261" d="M59 659q0 166 52.5 301.5t150.5 229.5t236.5 145t310.5 51q94 0 187.5 -13t213.5 -46v-338h-90l-102 279q-27 6 -42 7t-50 1q-147 0 -249 -35t-175 -111q-168 -174 -168 -464q0 -270 142 -422t394 -152q35 0 69 3t73 9l6 2l112 281h93l-25 -336l-31 -8q-141 -37 -237 -50 t-189 -13q-160 0 -286.5 47t-213.5 134t-134.5 213t-47.5 285z" />
<glyph unicode="D" horiz-adv-x="1466" d="M49 0v57l172 72v1108l-172 72v57h647q88 0 158 -8t128 -25.5t108.5 -46.5t97.5 -69q215 -184 215 -515q0 -336 -209 -528q-100 -92 -229 -133t-310 -41h-606zM487 102h127q236 0 359 131q155 171 155 453q0 139 -37.5 251t-109.5 189q-70 74 -157 106t-224 32h-113v-1162 z" />
<glyph unicode="E" horiz-adv-x="1193" d="M49 0v57l172 72v1108l-172 72v57h1038v-328h-79l-103 236h-418v-531h344l74 185h82v-459h-82l-74 172h-344v-549h433l118 234h84l-24 -326h-1049z" />
<glyph unicode="F" horiz-adv-x="1075" d="M49 0v57l172 72v1108l-172 72v57h1038v-328h-77l-105 236h-418v-531h342l76 185h82v-459h-82l-76 182h-342v-522l224 -72v-57h-662z" />
<glyph unicode="G" horiz-adv-x="1388" d="M59 666q0 164 54.5 297t154 227t240.5 145t317 51q43 0 86 -2t89.5 -7t99.5 -15t119 -27l32 -8v-338h-96l-102 281q-27 4 -42.5 5t-47.5 1q-166 0 -270.5 -33t-182.5 -106q-176 -172 -176 -471q0 -133 37 -240t105.5 -180.5t167.5 -113.5t224 -40q35 0 54.5 2t52.5 8v340 l-172 72v57h600v-57l-172 -72v-391q-147 -37 -261 -54t-214 -17q-164 0 -293 47t-219 135t-137.5 215t-47.5 289z" />
<glyph unicode="H" horiz-adv-x="1564" d="M49 0v57l172 72v1108l-172 72v57h610v-57l-172 -72v-473h590v473l-172 72v57h611v-57l-173 -72v-1108l173 -72v-57h-611v57l172 72v533h-590v-533l172 -72v-57h-610z" />
<glyph unicode="I" horiz-adv-x="714" d="M49 0v57l172 72v1108l-172 72v57h610v-57l-172 -72v-1108l172 -72v-57h-610z" />
<glyph unicode="J" horiz-adv-x="655" d="M-127 -213h145l72 -147q74 35 101.5 90t27.5 166v1341l-174 72v57h602v-57l-174 -72v-1231q0 -59 -6 -107.5t-20.5 -88t-38 -74.5t-58.5 -70q-68 -66 -144.5 -95.5t-187.5 -29.5q-49 0 -75.5 4t-69.5 17v225z" />
<glyph unicode="K" horiz-adv-x="1261" d="M49 0v57l172 72v1108l-172 72v57h600v-57l-176 -72l6 -1108l170 -72v-57h-600zM489 700l472 547l-127 62v57h489v-57l-172 -68l-428 -442l463 -672l168 -70v-57h-393z" />
<glyph unicode="L" horiz-adv-x="1028" d="M49 0v57l172 72v1108l-172 72v57h610v-57l-172 -72v-1135h322l127 254h86l-31 -356h-942z" />
<glyph unicode="M" horiz-adv-x="1769" d="M49 0v57l172 72v1108l-172 72v57h457l393 -946l393 946h439v-57l-175 -72v-1108l175 -72v-57h-603v57l164 72v934l-444 -1073h-51l-443 1073v-934l164 -72v-57h-469z" />
<glyph unicode="N" horiz-adv-x="1466" d="M49 0v57l172 72v1108l-172 72v57h402l698 -924v795l-162 72v57h467v-57l-172 -72v-1257h-104l-824 1089v-940l164 -72v-57h-469z" />
<glyph unicode="O" horiz-adv-x="1476" d="M59 639q0 166 52.5 303t146.5 236.5t225 153.5t289 54q143 0 261 -49t202 -138t131 -214t47 -274q0 -164 -51 -300.5t-145.5 -234.5t-224 -152.5t-287.5 -54.5q-143 0 -262 49.5t-204 137.5t-132.5 210.5t-47.5 272.5zM334 692q0 -137 28.5 -249.5t82 -192.5t128 -124 t166.5 -44t166 42t126 120t80 189.5t28 250.5q0 133 -29 243.5t-82 189.5t-127 123t-162 44q-92 0 -166.5 -42t-128 -120t-82 -187.5t-28.5 -242.5z" />
<glyph unicode="P" horiz-adv-x="1124" d="M49 0v57l164 72v1108l-164 72v57h535q76 0 135 -5t106 -15.5t86 -28t74 -41.5q143 -106 143 -295q0 -190 -137 -300t-377 -110h-137v-442l172 -72v-57h-600zM477 662h60q84 0 131 13t86 46q100 86 100 250q0 152 -82 233q-39 39 -85 54.5t-122 15.5h-88v-612z" />
<glyph unicode="Q" horiz-adv-x="1476" d="M59 651q0 160 52.5 295t145.5 233.5t223 152.5t284 54q143 0 262 -49t205 -138t134 -211t48 -269q0 -256 -124 -439.5t-345 -254.5q23 -12 33 -17q18 -10 56 -25.5t97 -39.5l179 -74l184 -68q37 -14 64 -19t47 -5q27 0 63.5 12t120.5 47l37 -59l-25 -19q-74 -55 -124 -90 t-85 -53t-62.5 -25.5t-55.5 -7.5q-59 0 -139.5 28t-203.5 87q-41 20 -100 52t-137 73q-57 31 -94 52.5t-64.5 37.5t-53.5 32.5t-60 39.5q-133 20 -236.5 76.5t-176.5 142.5t-111 199.5t-38 248.5zM344 666q0 -127 29.5 -232.5t83 -181.5t127 -118t164.5 -42q88 0 160.5 42 t123.5 119t79 184.5t28 240.5t-29 242.5t-81 188.5t-125 122t-161 43q-92 0 -165.5 -43t-126 -122t-80 -191.5t-27.5 -251.5z" />
<glyph unicode="R" horiz-adv-x="1282" d="M49 0v57l172 72v1108l-172 72v57h610q61 0 109.5 -5t86.5 -15.5t68.5 -26.5t61.5 -41q113 -94 113 -244q0 -139 -81 -233t-226 -123l376 -553l166 -68v-57h-395l-408 643h-43v-514l172 -72v-57h-610zM487 733h95q109 0 175 78t66 201t-65.5 192.5t-179.5 69.5h-91v-541z " />
<glyph unicode="S" horiz-adv-x="1026" d="M78 59v338h92l106 -284q16 -4 28.5 -6.5t25 -3.5t29 -1h40.5q156 0 228.5 49.5t72.5 153.5q0 33 -7 59.5t-24.5 51t-48 50.5t-79.5 56l-232 152q-117 76 -169 158.5t-52 187.5q0 82 33 150.5t93 115.5t146 73.5t191 26.5q53 0 100 -7t125 -25l115 -27l33 -6v-332h-88 l-103 273q-31 10 -50 12t-69 2q-290 0 -290 -188q0 -32 6 -55t23.5 -45.5t50 -47.5t85.5 -59l228 -148q43 -29 70.5 -48t47 -35.5t33 -32t25.5 -35.5q29 -43 45 -100.5t16 -114.5q0 -84 -33.5 -154t-93 -119t-144.5 -76.5t-185 -27.5q-29 0 -75 5t-101.5 14t-119 21.5 t-124.5 28.5z" />
<glyph unicode="T" horiz-adv-x="1144" d="M0 979v387h1141v-387h-86l-103 285h-250v-1135l226 -72v-57h-715v57l225 72v1135h-254l-100 -285h-84z" />
<glyph unicode="U" horiz-adv-x="1409" d="M0 1309v57h602v-57l-164 -72v-829q0 -166 74 -246t231 -80q145 0 230 61q59 45 82.5 110.5t23.5 180.5v803l-172 72v57h500v-57l-174 -72v-766q0 -145 -41 -238.5t-133 -158.5q-76 -53 -167 -79t-206 -26q-248 0 -380 113t-132 324v831z" />
<glyph unicode="V" horiz-adv-x="1261" d="M-98 1309v57h592v-57l-156 -70l270 -715q20 -53 33.5 -94t32.5 -106l373 915l-156 70v57h469v-57l-158 -70l-553 -1259h-104l-486 1259z" />
<glyph unicode="W" horiz-adv-x="2015" d="M-78 1309v57h590v-57l-158 -68l205 -604q20 -59 38.5 -126t37.5 -144l375 999h110l291 -844l19 -65l22 -66l6 -24l314 874l-158 68v57h469v-57l-160 -68l-487 -1251h-105l-282 811q-12 35 -26.5 81t-31.5 99l-373 -991h-106l-432 1251z" />
<glyph unicode="X" horiz-adv-x="1359" d="M-10 0v57l153 70l412 532l-379 584l-156 66v57h623v-57l-158 -66l244 -373l268 373l-151 66v57h469v-57l-156 -66l-362 -475l407 -641l162 -70v-57h-623v57l156 70l-274 424l-303 -424l157 -70v-57h-489z" />
<glyph unicode="Y" horiz-adv-x="1173" d="M-88 1309v57h602v-57l-147 -68l280 -453l295 453l-143 68v57h458v-57l-159 -68l-381 -561v-551l225 -72v-57h-715v55l226 74v500l-387 612z" />
<glyph unicode="Z" horiz-adv-x="1173" d="M49 0v80l764 1184h-510l-100 -275h-92v377h1017v-86l-757 -1178h542l103 295h92v-397h-1059z" />
<glyph unicode="[" horiz-adv-x="489" d="M147 -459v1907h326v-102h-164v-1702h164v-103h-326z" />
<glyph unicode="\" d="M53 1536h154l723 -1706h-154z" />
<glyph unicode="]" horiz-adv-x="489" d="M20 -356h162v1702h-162v102h326v-1907h-326v103z" />
<glyph unicode="^" d="M49 743l361 627h204l361 -627h-170l-295 502l-293 -502h-168z" />
<glyph unicode="_" d="M0 -135h1024v-139h-1024v139z" />
<glyph unicode="`" d="M248 1430h284l246 -306h-131z" />
<glyph unicode="a" horiz-adv-x="1060" d="M66 236q0 190 194 241q68 16 154 29.5t213 23.5v240q0 86 -32 121t-110 35h-15t-32 -2q-4 0 -7 -1t-7 -1l-94 -189h-183v197q266 80 410 80q131 0 213 -45q29 -16 48.5 -35t30.5 -41.5t16 -53t5 -73.5v-545v-33q0 -37 66 -51l108 -27v-57l-20 -6l-90 -27q-70 -20 -90 -24 q-43 -12 -86 -12q-51 0 -79 24.5t-46 85.5q-88 -53 -166 -81.5t-133 -28.5q-59 0 -108.5 19t-84.5 53t-55 81t-20 103zM319 279q0 -72 47.5 -114t125.5 -42q61 0 135 22v318l-27 -4l-92 -21q-55 -12 -92 -25.5t-58.5 -32t-30 -43t-8.5 -58.5z" />
<glyph unicode="b" horiz-adv-x="1198" d="M-2 1309v57l428 82v-551l18 10l105 54q63 33 116.5 46t94.5 13q78 0 145.5 -36t116.5 -98.5t77.5 -148.5t28.5 -184q0 -125 -43 -230.5t-121.5 -181t-186 -117.5t-236.5 -42q-41 0 -104.5 7t-127.5 17l-104 19l-25 4v1231zM426 94q27 -8 43 -10t45 -2q160 0 254 108.5 t94 292.5q0 176 -83 279.5t-224 103.5q-74 0 -129 -22v-750z" />
<glyph unicode="c" horiz-adv-x="933" d="M66 467q0 123 39.5 222t113.5 171t177.5 111t230.5 39q66 0 135 -11.5t160 -33.5v-232h-172l-95 189h-16q-68 0 -124 -30t-97 -84t-64.5 -128t-23.5 -160q0 -199 100 -303t287 -104q41 0 81 2t93 18l22 6l15 -80q-133 -41 -227.5 -59t-165.5 -18q-104 0 -190.5 35.5 t-148 99t-96 152.5t-34.5 198z" />
<glyph unicode="d" horiz-adv-x="1226" d="M66 453q0 119 40.5 221t112.5 177t171 117t214 42q45 0 81 -6.5t83 -20.5v277l-182 49v57l438 82v-1294l162 -48v-57l-418 -80v133l-18 -10q-59 -33 -105.5 -54.5t-83.5 -34.5t-67.5 -18t-59.5 -5q-78 0 -145.5 36.5t-116.5 100t-77.5 149.5t-28.5 187zM330 510 q0 -174 83 -275.5t226 -101.5q66 0 129 21v749q-29 10 -47.5 12.5t-48.5 2.5q-78 0 -140.5 -30t-107.5 -83t-69.5 -128t-24.5 -167z" />
<glyph unicode="e" horiz-adv-x="1021" d="M66 471q0 117 35.5 215t100 170t152.5 113t193 41q260 0 352 -174q18 -33 29.5 -64t18.5 -65.5t10.5 -79.5t5.5 -107h-639q0 -193 99 -300t277 -107q90 0 232 30l14 -75q-125 -43 -229.5 -65.5t-177.5 -22.5q-109 0 -196 34.5t-148.5 98t-95 154.5t-33.5 204zM326 590 l366 35q-4 164 -42 233.5t-128 69.5q-96 0 -146 -86t-50 -252z" />
<glyph unicode="f" horiz-adv-x="737" d="M45 0v57l174 72v768h-153v102h153v43q0 94 33 169t93.5 128.5t146.5 81t194 27.5q125 0 246 -37v-188h-156l-80 135q-117 -2 -170 -58.5t-53 -183.5v-117h256v-102h-256v-768l215 -72v-57h-643z" />
<glyph unicode="g" horiz-adv-x="1110" d="M16 -203q0 51 53.5 103.5t168.5 99.5l24 10q-45 33 -64.5 60.5t-19.5 58.5q0 45 46 98.5t157 134.5q-133 18 -213 102.5t-80 205.5q0 74 31 135t86 107t130 72t163 26q139 0 245 -64l353 76v-207l-295 78q133 -102 133 -238q0 -68 -31 -124t-86 -98t-131 -64.5 t-166 -22.5q-23 0 -37 1t-37 3l-12 -16q-25 -35 -33 -52.5t-8 -35.5q0 -61 121 -62h248q285 0 285 -223q0 -88 -43 -162.5t-120 -130t-182.5 -86.5t-228.5 -31q-96 0 -179 19.5t-144.5 52.5t-97.5 78t-36 96zM211 -178q0 -37 21.5 -70t58.5 -57.5t87 -37.5t109 -13 q74 0 137.5 16t109.5 45t71.5 69t25.5 87q0 59 -32.5 78.5t-128.5 19.5h-248q-45 0 -69.5 5t-45.5 16l-12 -15q-84 -78 -84 -143zM332 702q0 -137 50 -210.5t136 -73.5q78 0 119 57t41 168q0 137 -47 216t-131 79q-78 0 -123 -60.5t-45 -164.5v-11z" />
<glyph unicode="h" horiz-adv-x="1275" d="M37 1309v57l428 82v-541l22 8q123 45 206 70t134 25q53 0 103.5 -22.5t83.5 -63.5q41 -49 56 -104.5t15 -149.5v-541l175 -72v-57h-562v57l144 72v481q0 139 -48 197.5t-161 58.5q-43 0 -91 -5t-77 -15v-717l151 -72v-57h-569v57l172 72v1131z" />
<glyph unicode="i" horiz-adv-x="677" d="M55 0v57l174 72v711l-174 51v55l428 76v-893l174 -72v-57h-602zM199 1305q0 112 144 112h3q84 0 121 -25.5t37 -82.5q0 -61 -35 -89t-115 -28q-86 0 -120.5 25.5t-34.5 87.5z" />
<glyph unicode="j" horiz-adv-x="659" d="M-131 -233h166l43 -136q76 10 107.5 63.5t31.5 168.5v973l-174 55v55l428 72v-1018q0 -63 -5 -110.5t-18.5 -86.5t-36 -72.5t-55.5 -66.5q-123 -123 -307 -123q-41 0 -89 5t-91 16v205zM186 1305q0 112 143 112h3q88 0 124 -25.5t36 -88.5q-1 -111 -144 -111 q-92 0 -127 24.5t-35 88.5z" />
<glyph unicode="k" horiz-adv-x="1198" d="M37 1309v57l438 82v-1319l141 -72v-57h-569v57l172 72v1131zM500 543l321 342l-133 57v57h510v-57l-203 -70l-270 -233l356 -524l148 -58v-57h-377z" />
<glyph unicode="l" horiz-adv-x="669" d="M37 1309v57l428 82v-1319l182 -72v-57h-600v57l172 72v1131z" />
<glyph unicode="m" horiz-adv-x="1861" d="M55 0v57l174 72v711l-174 55v51l418 76v-117l23 8l96 39q51 20 82 31.5t52.5 18t37.5 7.5t41 1q72 0 119 -26t94 -89l20 8q133 53 217 80t144 27q59 0 114.5 -24.5t94.5 -67.5q18 -23 31.5 -46.5t21.5 -51t11 -62.5t3 -80v-549l174 -72v-57h-561v57l144 72v498 q0 239 -207 239h-2q-41 0 -87 -7t-87 -19q16 -33 21 -68t5 -94v-549l142 -72v-57h-529v57l141 72v496q1 231 -208 231q-88 0 -148 -16v-711l143 -72v-57h-561z" />
<glyph unicode="n" horiz-adv-x="1275" d="M55 0v57l174 72v711l-174 49v55l418 76v-115l21 8l100 37q45 16 73.5 26.5t41.5 14.5q53 16 116 17q66 0 111 -20.5t82 -65.5q20 -25 32.5 -49.5t20.5 -53t11 -65.5t3 -88v-537l172 -72v-57h-548v57l131 72v473q0 74 -10.5 123t-34 77.5t-62.5 41t-98 12.5q-45 0 -77 -3 t-85 -13v-711l154 -72v-57h-572z" />
<glyph unicode="o" horiz-adv-x="1177" d="M66 469q0 121 38.5 221.5t108.5 171t168 109.5t219 39q117 0 212 -36t161.5 -101.5t103.5 -158.5t37 -208q0 -121 -39 -219.5t-108.5 -169t-168.5 -109.5t-218 -39q-117 0 -211.5 36t-162 101.5t-104 157.5t-36.5 205zM340 512q0 -209 66.5 -324.5t185.5 -115.5 t183.5 104.5t64.5 296.5q0 207 -67.5 326t-184.5 119t-182.5 -106.5t-65.5 -299.5z" />
<glyph unicode="p" horiz-adv-x="1226" d="M37 891v55l420 74v-125q106 55 191 85t145 30q80 0 146.5 -35t115.5 -97.5t76.5 -148.5t27.5 -186q0 -121 -42 -224.5t-117.5 -178t-178 -117.5t-221.5 -43q-41 0 -72.5 5t-70.5 17v-336l213 -65v-60h-631v60l174 65v1172zM457 90q27 -6 41 -7t41 -1q172 0 264 109.5 t92 312.5q0 186 -67.5 272t-213.5 86q-16 0 -31.5 -1t-33 -3t-40 -5t-52.5 -9v-754z" />
<glyph unicode="q" horiz-adv-x="1198" d="M66 444q0 123 39.5 226.5t112.5 179.5t172 118t216 42q63 0 113.5 -10.5t111.5 -36.5l183 73v-1360l172 -65v-60h-590v60l172 65v435q-113 -72 -184.5 -100.5t-141.5 -28.5q-80 0 -149.5 34.5t-119.5 96t-78.5 146.5t-28.5 185zM414 234.5q84 -101.5 227 -101.5 q35 0 64 6q8 0 51 13q2 0 5 1t7 1v749q-33 4 -47 4h-35q-84 0 -139 -21.5t-105 -72.5q-112 -114 -112 -300q0 -177 84 -278.5z" />
<glyph unicode="r" horiz-adv-x="903" d="M55 0v57l174 72v711l-174 53v55l418 74v-127l23 12q59 33 102 54.5t77 35t59.5 18.5t49.5 5q55 0 127 -37v-250h-209l-55 129q-16 2 -27.5 3t-19.5 1q-23 0 -58.5 -8t-68.5 -18v-711l215 -72v-57h-633z" />
<glyph unicode="s" horiz-adv-x="884" d="M104 35v239h138l96 -192q18 -2 27.5 -2h17.5q92 0 141 36t49 105q0 25 -4 42.5t-17 32.5t-36.5 31.5t-62.5 41.5l-170 102q-98 59 -138.5 115.5t-40.5 140.5q0 61 25 112.5t69 89.5t104 59.5t132 21.5q23 0 55.5 -3t67.5 -8q29 -4 52.5 -7t39.5 -7l84 -18l23 -4v-220 h-135l-91 172q-10 2 -22 3q-180 0 -180 -125q0 -45 22.5 -72t89.5 -66l181 -100q165 -91 165 -264q0 -70 -26.5 -127.5t-73.5 -98t-112.5 -63t-143.5 -22.5q-39 0 -87 6t-116 22l-92 21z" />
<glyph unicode="t" horiz-adv-x="786" d="M27 897v70l22 8q61 23 98 38t61.5 31.5t43 39t43.5 61.5q23 35 34 55.5t25 52.5h80v-254h316v-102h-316v-610q0 -51 8.5 -86t30 -55.5t56 -28.5t87.5 -8q16 0 32 1t30 3l55 8l17 2l18 -80l-23 -6l-106 -27q-55 -14 -113.5 -21t-103.5 -7q-125 0 -183.5 59t-58.5 186v670 h-153z" />
<glyph unicode="u" horiz-adv-x="1245" d="M16 893v55l428 74v-633q0 -74 10.5 -124t34 -78.5t63.5 -41t99 -12.5q41 0 69 4t75 10l16 3v692l-172 51v55l418 74v-868l172 -48v-57l-418 -82v121l-18 -8q-72 -33 -124.5 -52.5t-92 -30.5t-70.5 -14t-57 -3q-57 0 -109.5 22.5t-85.5 63.5q-37 45 -50.5 100t-13.5 160 v516z" />
<glyph unicode="v" horiz-adv-x="1011" d="M-43 942v57h541v-57l-146 -55l158 -432q10 -31 25.5 -81t25.5 -85l223 585l-133 68v57h398v-57l-119 -68l-387 -894h-111l-348 907z" />
<glyph unicode="w" horiz-adv-x="1589" d="M-33 942v57h531v-57l-142 -53l133 -379q20 -59 33 -99t25 -87l250 675h125l165 -487q2 -8 9.5 -29.5t17.5 -58.5q16 -66 25 -88q2 -10 6 -31l205 576l-140 61v57h408v-57l-121 -72l-375 -890h-100l-158 454q-6 16 -12 39t-14 51q-12 41 -21.5 69t-13.5 42q-2 4 -3 11 t-5 18l-254 -684h-111l-336 909z" />
<glyph unicode="x" horiz-adv-x="1089" d="M-2 0v57l149 68l287 348l-264 414l-143 55v57h530v-57l-102 -57l80 -125q14 -23 30.5 -53.5t32.5 -59.5l174 240l-102 55v57h387v-57l-148 -70l-254 -307l297 -452l146 -56v-57h-541v57l98 56l-141 235q-6 10 -11 18.5t-7 12.5l-4 12l-195 -278l98 -56v-57h-397z" />
<glyph unicode="y" horiz-adv-x="1011" d="M-43 942v57h530v-57l-141 -53l160 -432q2 -6 9 -26.5t17 -55.5q10 -27 15.5 -43.5t7.5 -24.5q2 -4 3 -11t5 -17l215 598l-137 65v57h408v-57l-127 -72l-412 -1020q-29 -70 -47.5 -111.5t-35.5 -68t-36.5 -43t-48.5 -35.5q-84 -51 -201 -51q-100 0 -164 19v196h166 l37 -123q68 10 114 57.5t87 151.5l59 152l-362 895z" />
<glyph unicode="z" horiz-adv-x="983" d="M66 0v82l528 815h-275l-100 -195h-113v297h785v-81l-535 -816h316l114 213h105v-315h-825z" />
<glyph unicode="{" d="M293 442v127q63 16 90 57.5t27 123.5v358q0 147 67.5 214t220.5 67h66v-136q-59 0 -98 -8t-60.5 -27.5t-30 -53.5t-8.5 -87v-338q0 -100 -27.5 -150t-97.5 -89q70 -39 97.5 -92.5t27.5 -149.5v-328q0 -55 8.5 -90t30 -55.5t59 -28.5t99.5 -8v-133l-41 -2h-25 q-156 0 -222 69.5t-66 231.5v338q0 88 -26 131t-91 59z" />
<glyph unicode="|" d="M434 -512v2048h156v-2048h-156z" />
<glyph unicode="}" d="M285 -250q59 0 98 8.5t60.5 27.5t29.5 52t8 86v338q0 100 27 150.5t98 89.5q-70 39 -97.5 92t-27.5 151v326q0 55 -8 91t-29.5 55.5t-60.5 27.5t-98 8v136h63q158 0 224.5 -69t66.5 -233v-335q0 -90 25.5 -132t89.5 -59v-127q-61 -16 -88 -58t-27 -122v-358 q0 -150 -68.5 -216.5t-224.5 -66.5h-24.5t-36.5 2v135z" />
<glyph unicode="~" horiz-adv-x="1366" d="M190 1249q33 68 64 113t63.5 73.5t70.5 41t85 12.5q41 0 92 -15.5t135 -54.5q45 -20 75 -32.5t50.5 -19.5t37 -9t34.5 -2q59 0 98 29.5t86 107.5l95 -57q-61 -123 -131 -177.5t-166 -54.5q-29 0 -80 13.5t-92 31.5l-115 51q-80 35 -131 35q-53 0 -95 -33.5t-83 -111.5z " />
<glyph unicode="&#xa1;" horiz-adv-x="468" d="M39 -20l104 1050h103l104 -1050h-311zM57 1245q0 121 133 121q76 0 109 -27.5t33 -87.5q0 -121 -139 -121q-135 0 -136 115z" />
<glyph unicode="&#xa2;" horiz-adv-x="1075" d="M123 655q0 207 110.5 346.5t309.5 180.5v252h102v-238h39q66 0 135.5 -10t159.5 -33v-231h-172l-94 188h-17q-14 0 -24 -1t-27 -5v-789q39 -10 64.5 -13t64.5 -3q41 0 81 6t93 17l23 4l14 -78q-111 -35 -192.5 -53.5t-147.5 -24.5v-238h-102v238q-96 8 -173 48 t-132.5 103.5t-85 148.5t-29.5 185zM387 707q0 -123 38 -207t118 -140v699q-156 -113 -156 -352z" />
<glyph unicode="&#xa3;" horiz-adv-x="1075" d="M59 59l15 15q47 47 75.5 77.5t45 59.5t21.5 63.5t5 87.5v261h-133v100h133v186q0 117 29 189.5t98 126.5q119 90 295 90q59 0 154.5 -17.5t208.5 -46.5v-333h-82l-99 276q-35 4 -62.5 7t-53.5 3q-121 0 -177.5 -59.5t-56.5 -186.5v-235h295v-100h-295v-95 q0 -182 -78 -258l-84 -82l-28 -28q37 18 59.5 29.5t39.5 16.5t32.5 7t38.5 2q31 0 49 -6l61 -14l170 -37q33 -8 63.5 -11.5t47.5 -3.5q35 0 75 35t76 96l58 -34q-49 -129 -111 -220q-59 -82 -151 -81q-29 0 -66 7t-94 23l-227 64q-29 8 -60 13t-53 5q-82 0 -178 -65z" />
<glyph unicode="&#xa4;" horiz-adv-x="1366" d="M104 1225l89 88l194 -197q78 57 146.5 81t150.5 24q80 0 148.5 -23.5t142.5 -79.5l194 195l88 -88l-192 -195q55 -78 78.5 -145.5t23.5 -145.5q0 -80 -23.5 -146.5t-78.5 -141.5l197 -197l-88 -88l-195 196q-137 -104 -293 -104q-78 0 -147.5 23.5t-147.5 76.5l-194 -192 l-88 88l194 195q-104 131 -104 292q0 78 23.5 145.5t76.5 141.5zM342 739q0 -72 26.5 -133t72.5 -107t108.5 -73t132.5 -27t132.5 27t108.5 73t72.5 107t26.5 133q0 70 -26.5 132.5t-72.5 109.5t-108.5 73.5t-132.5 26.5t-132.5 -26.5t-108.5 -73.5t-72.5 -109.5 t-26.5 -132.5z" />
<glyph unicode="&#xa5;" horiz-adv-x="1075" d="M-14 1309v57h573v-57l-147 -68l73 -176h244l82 176l-143 68v57h432v-57l-160 -68l-86 -176h158v-100h-207l-113 -234h207v-102h-231v-500l225 -72v-57h-715v55l225 74v500h-256v102h213l-100 234h-225v100h180l-76 176zM526 965l72 -177l84 177h-156z" />
<glyph unicode="&#xa7;" horiz-adv-x="940" d="M39 461q0 111 70.5 193.5t201.5 125.5q-90 55 -130 119t-40 145q0 129 98.5 205t264.5 76q59 0 112 -12l80 -17l76 -14l31 -6v-246h-105l-88 189h-12q-27 4 -37 4h-20q-88 0 -137.5 -34t-49.5 -93q0 -43 29 -78t104 -82l197 -125q111 -72 161 -143.5t50 -161.5 q0 -215 -266 -322q90 -55 127 -115.5t37 -150.5q0 -131 -95.5 -208t-259.5 -77q-43 0 -120.5 13.5t-176.5 36.5v245h103l88 -188q20 -4 31.5 -5t33.5 -1q193 0 193 135q0 45 -23.5 74.5t-93.5 74.5l-235 150q-109 70 -154 136.5t-45 156.5zM264 535q0 -68 35 -117t121 -101 l151 -90q59 61 80 102.5t21 98.5q0 76 -40 129t-140 113l-121 69q-51 -43 -79 -97t-28 -107z" />
<glyph unicode="&#xa8;" d="M207 1274q0 115 110 115q113 0 113 -113q0 -111 -111 -111q-113 0 -112 109zM594 1278q0 111 115 111q109 0 108 -109q1 -115 -112 -115q-111 0 -111 113z" />
<glyph unicode="&#xa9;" horiz-adv-x="1552" d="M68 678q0 147 55 276t151.5 225.5t225.5 151.5t276 55t276.5 -55t225.5 -151.5t151.5 -225.5t55.5 -276t-55.5 -276.5t-151.5 -225.5t-225 -151.5t-277 -55.5q-147 0 -276 55.5t-225.5 151.5t-151.5 225t-55 277zM178 678q0 -127 47 -239.5t128 -196.5t190.5 -132.5 t232.5 -48.5q125 0 233.5 48.5t189.5 132.5t128 196.5t47 239.5t-47 239.5t-128 195.5t-189.5 131t-233.5 48t-233.5 -48t-189.5 -131t-128 -195.5t-47 -239.5zM350 668q0 100 35 180t99.5 137t155.5 88t204 31q59 0 120.5 -6t127.5 -25l14 -4h6v-213h-70l-67 166 q-16 4 -25.5 4h-31.5q-180 0 -277.5 -92t-97.5 -262q0 -156 91 -244t251 -88q23 0 40 2t50 6l74 168h71l-16 -211l-4 -2l-21 -4q-96 -20 -157.5 -29.5t-120.5 -9.5q-211 0 -331 107.5t-120 300.5z" />
<glyph unicode="&#xaa;" horiz-adv-x="716" d="M82 954q0 39 15.5 70t51 52.5t95 31.5t149.5 10h15v123q0 45 -16.5 61.5t-59.5 16.5h-9.5t-17.5 -2h-4l-55 -103h-117v119l6 2l15 4q68 20 125 29.5t98 9.5q98 0 144 -34.5t46 -106.5v-295v-16q0 -12 33 -21l68 -16v-41l-5 -2l-12 -4l-53 -13q-20 -4 -32.5 -8t-18.5 -6 q-25 -6 -51 -6q-31 0 -49.5 12.5t-28.5 42.5q-104 -55 -168 -55q-72 0 -118 41t-46 104zM90 608v68h574v-68h-574zM238 977q0 -39 26.5 -61.5t71.5 -22.5q33 0 78 10v174l-15 -4l-53 -10q-66 -12 -87 -29.5t-21 -56.5z" />
<glyph unicode="&#xab;" horiz-adv-x="761" d="M49 502l223 395h134l-224 -395l224 -379h-134zM334 502l221 395h137l-227 -395l227 -379h-137z" />
<glyph unicode="&#xac;" d="M68 406v141h888v-547h-157v406h-731z" />
<glyph unicode="&#xad;" horiz-adv-x="489" d="M20 449v182h447v-182h-447z" />
<glyph unicode="&#xae;" d="M102 1153q0 86 33 161t88.5 130t130 87t158.5 32q86 0 161 -32t130 -87t87 -130t32 -161q0 -84 -33 -158.5t-88.5 -130t-130 -88.5t-158.5 -33t-158.5 33t-130 88.5t-88.5 130t-33 158.5zM156 1153q0 -74 27.5 -138.5t76.5 -113.5t113.5 -76.5t138.5 -27.5t138.5 27.5 t113.5 76.5t76.5 113.5t27.5 138.5t-27.5 139.5t-76.5 113.5t-113.5 75.5t-138.5 27.5t-138.5 -27.5t-113.5 -76.5t-76.5 -113.5t-27.5 -138.5zM328 942v19l55 20v344l-55 23v18h190q135 0 135 -104q0 -88 -94 -109l117 -172l51 -20v-19h-123l-127 199h-12v-160l53 -20v-19 h-190zM465 1169h29q35 0 55 24t20 62q0 82 -77 82h-27v-168z" />
<glyph unicode="&#xaf;" d="M221 1210v133h582v-133h-582z" />
<glyph unicode="&#xb0;" d="M219 1083q0 59 22.5 111.5t62.5 91.5t93.5 61.5t114.5 22.5t114.5 -22.5t93.5 -61.5t62.5 -91t22.5 -110q0 -59 -22.5 -111t-62.5 -91t-93.5 -61.5t-114.5 -22.5t-114.5 22.5t-93.5 60.5t-62.5 90t-22.5 111zM322 1085q0 -39 14 -73.5t40.5 -60t60.5 -40t75 -14.5 q39 0 74 14.5t60.5 40t40.5 59t15 72.5t-15 74t-40.5 60.5t-60.5 40t-74 14.5q-41 0 -75 -14.5t-60.5 -40t-40.5 -59.5t-14 -73z" />
<glyph unicode="&#xb1;" d="M68 133v146h888v-146h-888zM68 709v145h366v348h156v-348h366v-145h-366v-347h-156v347h-366z" />
<glyph unicode="&#xb4;" d="M248 1124l244 306h286l-401 -306h-129z" />
<glyph unicode="&#xb5;" d="M92 -344v1325h156v-553q0 -121 24.5 -183.5t87.5 -103.5t146 -41q68 0 124 32t93 91q29 47 39 95.5t10 127.5v535h156v-981h-154v170q-49 -104 -113.5 -150.5t-160.5 -46.5q-84 0 -143.5 36t-108.5 114v-467h-156z" />
<glyph unicode="&#xb6;" horiz-adv-x="1200" d="M45 999q0 119 59.5 208t161.5 124q98 35 232 35h559v-125h-125v-1442h-135v1442h-211v-1442h-137v846h-31q-82 0 -150.5 25.5t-118 73t-77 113t-27.5 142.5z" />
<glyph unicode="&#xb7;" horiz-adv-x="303" d="M0 725q0 139 150 139q80 0 116.5 -34.5t36.5 -108.5q0 -137 -147 -137q-86 0 -121 31.5t-35 109.5z" />
<glyph unicode="&#xb8;" d="M338 -391q156 86 156 180q0 57 -62 78v133h82v-57q76 -4 124 -42t48 -98q0 -47 -27.5 -92t-78.5 -76q-49 -31 -99 -49q-6 -4 -29.5 -11t-64.5 -24q-4 -2 -9 -3t-16 -5z" />
<glyph unicode="&#xba;" horiz-adv-x="716" d="M49 1079q0 135 87 217t231 82q137 0 220 -75.5t83 -202.5q0 -66 -22.5 -121t-64.5 -94t-100.5 -60.5t-128.5 -21.5q-139 0 -222 75.5t-83 200.5zM61 608v68h609v-68h-609zM215 1104q0 -115 38 -177.5t107 -62.5q70 0 107 57.5t37 161.5q0 111 -39 174.5t-107 63.5 q-70 0 -106.5 -56.5t-36.5 -160.5z" />
<glyph unicode="&#xbb;" horiz-adv-x="761" d="M68 123l227 393l-227 381h137l221 -381l-221 -393h-137zM354 123l224 393l-224 381h133l224 -381l-224 -393h-133z" />
<glyph unicode="&#xbf;" horiz-adv-x="919" d="M18 319q0 98 35 174t115 154l201 195q49 47 63 77.5t14 79.5v50h101l8 -66l2 -25q0 -8 1 -13t1 -9v-8v-4q0 -20 -11 -49t-30 -62l-24 -41l-109 -192q-37 -66 -54.5 -124.5t-17.5 -125.5q0 -125 54.5 -182.5t173.5 -57.5q80 0 127 19l104 268h84v-330 q-47 -14 -103.5 -26.5t-114.5 -21.5t-112.5 -14t-97.5 -5q-133 0 -235.5 50t-141.5 132q-33 70 -33 157zM367 1251q0 115 131 115q72 0 102.5 -26.5t30.5 -86.5q0 -113 -135 -112q-129 0 -129 110z" />
<glyph unicode="&#xc0;" horiz-adv-x="1359" d="M-49 0v57l155 72l553 1257h103l491 -1257l156 -72v-57h-592v57l156 72l-142 397l-419 -2l-160 -395l158 -72v-57h-459zM442 1753h287l244 -305h-129zM446 623h353l-107 295q-12 35 -27.5 87t-23.5 89z" />
<glyph unicode="&#xc1;" horiz-adv-x="1359" d="M-49 0v57l155 72l553 1257h103l491 -1257l156 -72v-57h-592v57l156 72l-142 397l-419 -2l-160 -395l158 -72v-57h-459zM442 1448l246 305h285l-400 -305h-131zM446 623h353l-107 295q-12 35 -27.5 87t-23.5 89z" />
<glyph unicode="&#xc2;" horiz-adv-x="1359" d="M-49 0v57l155 72l553 1257h103l491 -1257l156 -72v-57h-592v57l156 72l-142 397l-419 -2l-160 -395l158 -72v-57h-459zM369 1448l336 334l339 -334h-145l-194 111l-189 -111h-147zM446 623h353l-107 295q-12 35 -27.5 87t-23.5 89z" />
<glyph unicode="&#xc3;" horiz-adv-x="1359" d="M-49 0v57l155 72l553 1257h103l491 -1257l156 -72v-57h-592v57l156 72l-142 397l-419 -2l-160 -395l158 -72v-57h-459zM369 1561l16 16l70.5 70.5t49 44t38 23.5t35.5 7q16 0 65 -14q14 -4 23.5 -8t15.5 -6l119 -56q37 -18 61 -18q23 0 48.5 14.5t72.5 55.5l12 10l52 -53 q-59 -82 -111.5 -125t-89.5 -43q-16 0 -33.5 3t-30.5 9l-37 18l-118 52q-31 14 -43.5 17t-24.5 3q-51 0 -135 -80zM446 623h353l-107 295q-12 35 -27.5 87t-23.5 89z" />
<glyph unicode="&#xc4;" horiz-adv-x="1359" d="M-49 0v57l155 72l553 1257h103l491 -1257l156 -72v-57h-592v57l156 72l-142 397l-419 -2l-160 -395l158 -72v-57h-459zM399 1597q0 115 111 115q113 0 113 -115q0 -53 -29 -81.5t-82 -28.5q-113 0 -113 110zM446 623h353l-107 295q-12 35 -27.5 87t-23.5 89zM786 1599 q0 113 115 113q53 0 81 -28.5t28 -81.5q0 -115 -113 -115q-111 0 -111 112z" />
<glyph unicode="&#xc5;" horiz-adv-x="1359" d="M-49 0v57l155 72l553 1257h103l491 -1257l156 -72v-57h-592v57l156 72l-142 397l-419 -2l-160 -395l158 -72v-57h-459zM438 1610q0 92 64.5 133t206.5 41q141 0 205.5 -41t64.5 -133t-64.5 -133t-205.5 -41t-206 41t-65 133zM446 623h353l-107 295q-12 35 -27.5 87 t-23.5 89zM600 1608q0 -100 102 -101q53 0 83 28t30 75t-27.5 74.5t-76.5 27.5q-53 0 -82 -27.5t-29 -76.5z" />
<glyph unicode="&#xc6;" horiz-adv-x="1730" d="M-88 0v57l156 72l677 1237h879v-328h-80l-102 236h-389v-561h313l76 184h80v-459h-80l-76 185h-313v-531h403l117 234h88l-29 -326h-1007v57l163 72v494h-319l-246 -494l158 -72v-57h-469zM518 713h270v553z" />
<glyph unicode="&#xc7;" horiz-adv-x="1261" d="M59 659q0 166 52.5 301.5t150.5 229.5t236.5 145t310.5 51q94 0 187.5 -13t213.5 -46v-338h-90l-102 279q-27 6 -42 7t-50 1q-147 0 -249 -35t-175 -111q-168 -174 -168 -464q0 -270 142 -422t394 -152q35 0 69 3t73 9l6 2l112 281h93l-25 -336l-31 -8 q-63 -16 -114.5 -27.5t-95.5 -18.5t-86 -11t-85 -6v-37q76 -4 124 -42t48 -98q0 -47 -27.5 -92t-78.5 -76q-49 -31 -98 -49q-6 -4 -30 -11t-65 -24q-4 -2 -9 -3t-15 -5l-25 66q156 86 156 180q0 57 -61 78v113q-309 14 -477.5 191t-168.5 488z" />
<glyph unicode="&#xc8;" horiz-adv-x="1193" d="M49 0v57l172 72v1108l-172 72v57h1038v-328h-79l-103 236h-418v-531h344l74 185h82v-459h-82l-74 172h-344v-549h433l118 234h84l-24 -326h-1049zM332 1753h286l244 -305h-129z" />
<glyph unicode="&#xc9;" horiz-adv-x="1193" d="M49 0v57l172 72v1108l-172 72v57h1038v-328h-79l-103 236h-418v-531h344l74 185h82v-459h-82l-74 172h-344v-549h433l118 234h84l-24 -326h-1049zM332 1448l246 305h284l-399 -305h-131z" />
<glyph unicode="&#xca;" horiz-adv-x="1193" d="M49 0v57l172 72v1108l-172 72v57h1038v-328h-79l-103 236h-418v-531h344l74 185h82v-459h-82l-74 172h-344v-549h433l118 234h84l-24 -326h-1049zM260 1448l334 334l340 -334h-146l-194 111l-188 -111h-146z" />
<glyph unicode="&#xcb;" horiz-adv-x="1193" d="M49 0v57l172 72v1108l-172 72v57h1038v-328h-79l-103 236h-418v-531h344l74 185h82v-459h-82l-74 172h-344v-549h433l118 234h84l-24 -326h-1049zM289 1597q0 115 110 115q113 0 113 -115q0 -53 -29 -81.5t-82 -28.5q-113 0 -112 110zM676 1599q0 113 117 113 q51 0 78.5 -28.5t27.5 -81.5q0 -115 -113 -115q-111 0 -110 112z" />
<glyph unicode="&#xcc;" horiz-adv-x="714" d="M49 0v57l172 72v1108l-172 72v57h610v-57l-172 -72v-1108l172 -72v-57h-610zM92 1753h287l244 -305h-129z" />
<glyph unicode="&#xcd;" horiz-adv-x="714" d="M49 0v57l172 72v1108l-172 72v57h610v-57l-172 -72v-1108l172 -72v-57h-610zM92 1448l246 305h285l-400 -305h-131z" />
<glyph unicode="&#xce;" horiz-adv-x="714" d="M20 1448l334 334l340 -334h-145l-195 111l-188 -111h-146zM49 0v57l172 72v1108l-172 72v57h610v-57l-172 -72v-1108l172 -72v-57h-610z" />
<glyph unicode="&#xcf;" horiz-adv-x="714" d="M49 0v57l172 72v1108l-172 72v57h610v-57l-172 -72v-1108l172 -72v-57h-610zM49 1597q0 115 111 115q113 0 112 -115q0 -53 -28.5 -81.5t-81.5 -28.5q-113 0 -113 110zM436 1599q0 113 117 113q51 0 78.5 -28.5t27.5 -81.5q1 -115 -112 -115q-111 0 -111 112z" />
<glyph unicode="&#xd1;" horiz-adv-x="1466" d="M49 0v57l172 72v1108l-172 72v57h402l698 -924v795l-162 72v57h467v-57l-172 -72v-1257h-104l-824 1089v-940l164 -72v-57h-469zM395 1561l17 16l70.5 70.5t49 44t38 23.5t34.5 7q16 0 66 -14q14 -4 23 -8t16 -6l118 -56q37 -18 62 -18q23 0 48.5 14.5t72.5 55.5l12 10 l51 -53q-59 -82 -111.5 -125t-89.5 -43q-16 0 -33.5 3t-29.5 9l-37 18l-119 52q-31 14 -43 17t-24 3q-51 0 -135 -80z" />
<glyph unicode="&#xd2;" horiz-adv-x="1476" d="M59 639q0 166 52.5 303t146.5 236.5t225 153.5t289 54q143 0 261 -49t202 -138t131 -214t47 -274q0 -164 -51 -300.5t-145.5 -234.5t-224 -152.5t-287.5 -54.5q-143 0 -262 49.5t-204 137.5t-132.5 210.5t-47.5 272.5zM334 692q0 -137 28.5 -249.5t82 -192.5t128 -124 t166.5 -44t166 42t126 120t80 189.5t28 250.5q0 133 -29 243.5t-82 189.5t-127 123t-162 44q-92 0 -166.5 -42t-128 -120t-82 -187.5t-28.5 -242.5zM475 1753h285l246 -305h-132z" />
<glyph unicode="&#xd3;" horiz-adv-x="1476" d="M59 639q0 166 52.5 303t146.5 236.5t225 153.5t289 54q143 0 261 -49t202 -138t131 -214t47 -274q0 -164 -51 -300.5t-145.5 -234.5t-224 -152.5t-287.5 -54.5q-143 0 -262 49.5t-204 137.5t-132.5 210.5t-47.5 272.5zM334 692q0 -137 28.5 -249.5t82 -192.5t128 -124 t166.5 -44t166 42t126 120t80 189.5t28 250.5q0 133 -29 243.5t-82 189.5t-127 123t-162 44q-92 0 -166.5 -42t-128 -120t-82 -187.5t-28.5 -242.5zM475 1448l244 305h287l-402 -305h-129z" />
<glyph unicode="&#xd4;" horiz-adv-x="1476" d="M59 639q0 166 52.5 303t146.5 236.5t225 153.5t289 54q143 0 261 -49t202 -138t131 -214t47 -274q0 -164 -51 -300.5t-145.5 -234.5t-224 -152.5t-287.5 -54.5q-143 0 -262 49.5t-204 137.5t-132.5 210.5t-47.5 272.5zM334 692q0 -137 28.5 -249.5t82 -192.5t128 -124 t166.5 -44t166 42t126 120t80 189.5t28 250.5q0 133 -29 243.5t-82 189.5t-127 123t-162 44q-92 0 -166.5 -42t-128 -120t-82 -187.5t-28.5 -242.5zM401 1448l334 334l340 -334h-145l-195 111l-186 -111h-148z" />
<glyph unicode="&#xd5;" horiz-adv-x="1476" d="M59 639q0 166 52.5 303t146.5 236.5t225 153.5t289 54q143 0 261 -49t202 -138t131 -214t47 -274q0 -164 -51 -300.5t-145.5 -234.5t-224 -152.5t-287.5 -54.5q-143 0 -262 49.5t-204 137.5t-132.5 210.5t-47.5 272.5zM334 692q0 -137 28.5 -249.5t82 -192.5t128 -124 t166.5 -44t166 42t126 120t80 189.5t28 250.5q0 133 -29 243.5t-82 189.5t-127 123t-162 44q-92 0 -166.5 -42t-128 -120t-82 -187.5t-28.5 -242.5zM401 1561l15 16q39 45 67.5 73.5t50 44t39 21.5t35.5 6q16 0 66 -14q14 -4 24.5 -8t16.5 -6l116 -56q39 -18 64 -18 q23 0 47.5 14.5t73.5 55.5l10 10l53 -53q-61 -82 -113.5 -125t-88.5 -43q-16 0 -34 4t-28 8l-39 18l-119 52q-29 12 -42 16t-23 4q-51 0 -137 -80z" />
<glyph unicode="&#xd6;" horiz-adv-x="1476" d="M59 639q0 166 52.5 303t146.5 236.5t225 153.5t289 54q143 0 261 -49t202 -138t131 -214t47 -274q0 -164 -51 -300.5t-145.5 -234.5t-224 -152.5t-287.5 -54.5q-143 0 -262 49.5t-204 137.5t-132.5 210.5t-47.5 272.5zM334 692q0 -137 28.5 -249.5t82 -192.5t128 -124 t166.5 -44t166 42t126 120t80 189.5t28 250.5q0 133 -29 243.5t-82 189.5t-127 123t-162 44q-92 0 -166.5 -42t-128 -120t-82 -187.5t-28.5 -242.5zM430 1597q0 115 111 115q115 0 114 -115q0 -53 -29.5 -81.5t-82.5 -28.5q-113 0 -113 110zM817 1599q0 113 117 113 q51 0 79.5 -28.5t28.5 -81.5q1 -115 -112 -115t-113 112z" />
<glyph unicode="&#xd8;" horiz-adv-x="1476" d="M59 645q0 162 52.5 298t145.5 234.5t223 153.5t284 55q57 0 98 -3t77 -11t70.5 -23.5t80.5 -39.5l77 121l93 -62l-82 -119q41 -35 69.5 -63.5t50 -58t37 -62.5t31.5 -78q47 -135 47 -280q0 -164 -52 -299.5t-145.5 -232.5t-224.5 -151.5t-289 -54.5q-51 0 -89 3 t-73.5 11.5t-73.5 24t-87 37.5l-82 -127l-90 59l84 127q-41 35 -68.5 64t-48 57.5t-37 63.5t-33.5 82q-23 66 -34 134t-11 140zM334 702q0 -125 19.5 -222t62.5 -185l575 866q-59 68 -116.5 95.5t-141.5 27.5q-90 0 -163.5 -41t-126 -117.5t-81 -184.5t-28.5 -239zM479 199 q61 -66 118.5 -91.5t139.5 -25.5q92 0 167 42t127 118.5t80 186.5t28 247q0 119 -19.5 210t-64.5 177z" />
<glyph unicode="&#xd9;" horiz-adv-x="1409" d="M0 1309v57h602v-57l-164 -72v-829q0 -166 74 -246t231 -80q145 0 230 61q59 45 82.5 110.5t23.5 180.5v803l-172 72v57h500v-57l-174 -72v-766q0 -145 -41 -238.5t-133 -158.5q-76 -53 -167 -79t-206 -26q-248 0 -380 113t-132 324v831zM467 1753h285l245 -305h-129z" />
<glyph unicode="&#xda;" horiz-adv-x="1409" d="M0 1309v57h602v-57l-164 -72v-829q0 -166 74 -246t231 -80q145 0 230 61q59 45 82.5 110.5t23.5 180.5v803l-172 72v57h500v-57l-174 -72v-766q0 -145 -41 -238.5t-133 -158.5q-76 -53 -167 -79t-206 -26q-248 0 -380 113t-132 324v831zM481 1448l246 305h285l-402 -305 h-129z" />
<glyph unicode="&#xdb;" horiz-adv-x="1409" d="M0 1309v57h602v-57l-164 -72v-829q0 -166 74 -246t231 -80q145 0 230 61q59 45 82.5 110.5t23.5 180.5v803l-172 72v57h500v-57l-174 -72v-766q0 -145 -41 -238.5t-133 -158.5q-76 -53 -167 -79t-206 -26q-248 0 -380 113t-132 324v831zM408 1448l333 334l342 -334h-147 l-195 111l-186 -111h-147z" />
<glyph unicode="&#xdc;" horiz-adv-x="1409" d="M0 1309v57h602v-57l-164 -72v-829q0 -166 74 -246t231 -80q145 0 230 61q59 45 82.5 110.5t23.5 180.5v803l-172 72v57h500v-57l-174 -72v-766q0 -145 -41 -238.5t-133 -158.5q-76 -53 -167 -79t-206 -26q-248 0 -380 113t-132 324v831zM436 1597q0 115 113 115t113 -115 q0 -53 -30 -81.5t-83 -28.5q-113 0 -113 110zM823 1599q0 53 31 83t86 30q53 0 81 -28.5t28 -81.5q0 -115 -113 -115t-113 112z" />
<glyph unicode="&#xdf;" horiz-adv-x="1314" d="M27 0v57l172 72v834q0 129 29.5 210.5t95.5 141.5q152 133 393 133q184 0 291.5 -67.5t107.5 -182.5q0 -51 -29.5 -96t-101.5 -107l-96 -82q-29 -23 -45.5 -39t-26.5 -30.5t-13 -26.5t-3 -29q0 -20 4 -34.5t17.5 -28.5t37 -29.5t60.5 -36.5l178 -100q90 -51 131 -115.5 t41 -156.5q0 -139 -99.5 -222t-265.5 -83q-98 0 -327 49v233h137l100 -188q12 -4 18.5 -4h22.5q188 0 188 135q0 47 -24.5 76.5t-91.5 70.5l-166 99q-92 55 -134 112.5t-42 134.5q0 104 102 201l76 72q47 47 67.5 90t20.5 96q0 174 -180 174q-125 0 -176.5 -68.5 t-51.5 -234.5v-1030h-417z" />
<glyph unicode="&#xe0;" horiz-adv-x="1060" d="M66 236q0 190 194 241q68 16 154 29.5t213 23.5v240q0 86 -32 121t-110 35h-15t-32 -2q-4 0 -7 -1t-7 -1l-94 -189h-183v197q266 80 410 80q131 0 213 -45q29 -16 48.5 -35t30.5 -41.5t16 -53t5 -73.5v-545v-33q0 -37 66 -51l108 -27v-57l-20 -6l-90 -27q-70 -20 -90 -24 q-43 -12 -86 -12q-51 0 -79 24.5t-46 85.5q-88 -53 -166 -81.5t-133 -28.5q-59 0 -108.5 19t-84.5 53t-55 81t-20 103zM264 1430h287l244 -306h-129zM319 279q0 -72 47.5 -114t125.5 -42q61 0 135 22v318l-27 -4l-92 -21q-55 -12 -92 -25.5t-58.5 -32t-30 -43t-8.5 -58.5z " />
<glyph unicode="&#xe1;" horiz-adv-x="1060" d="M66 236q0 190 194 241q68 16 154 29.5t213 23.5v240q0 86 -32 121t-110 35h-15t-32 -2q-4 0 -7 -1t-7 -1l-94 -189h-183v197q266 80 410 80q131 0 213 -45q29 -16 48.5 -35t30.5 -41.5t16 -53t5 -73.5v-545v-33q0 -37 66 -51l108 -27v-57l-20 -6l-90 -27q-70 -20 -90 -24 q-43 -12 -86 -12q-51 0 -79 24.5t-46 85.5q-88 -53 -166 -81.5t-133 -28.5q-59 0 -108.5 19t-84.5 53t-55 81t-20 103zM264 1124l246 306h285l-400 -306h-131zM319 279q0 -72 47.5 -114t125.5 -42q61 0 135 22v318l-27 -4l-92 -21q-55 -12 -92 -25.5t-58.5 -32t-30 -43 t-8.5 -58.5z" />
<glyph unicode="&#xe2;" horiz-adv-x="1060" d="M66 236q0 190 194 241q68 16 154 29.5t213 23.5v240q0 86 -32 121t-110 35h-15t-32 -2q-4 0 -7 -1t-7 -1l-94 -189h-183v197q266 80 410 80q131 0 213 -45q29 -16 48.5 -35t30.5 -41.5t16 -53t5 -73.5v-545v-33q0 -37 66 -51l108 -27v-57l-20 -6l-90 -27q-70 -20 -90 -24 q-43 -12 -86 -12q-51 0 -79 24.5t-46 85.5q-88 -53 -166 -81.5t-133 -28.5q-59 0 -108.5 19t-84.5 53t-55 81t-20 103zM193 1110l333 334l342 -334h-147l-195 111l-186 -111h-147zM319 279q0 -72 47.5 -114t125.5 -42q61 0 135 22v318l-27 -4l-92 -21q-55 -12 -92 -25.5 t-58.5 -32t-30 -43t-8.5 -58.5z" />
<glyph unicode="&#xe3;" horiz-adv-x="1060" d="M66 236q0 190 194 241q68 16 154 29.5t213 23.5v240q0 86 -32 121t-110 35h-15t-32 -2q-4 0 -7 -1t-7 -1l-94 -189h-183v197q266 80 410 80q131 0 213 -45q29 -16 48.5 -35t30.5 -41.5t16 -53t5 -73.5v-545v-33q0 -37 66 -51l108 -27v-57l-20 -6l-90 -27q-70 -20 -90 -24 q-43 -12 -86 -12q-51 0 -79 24.5t-46 85.5q-88 -53 -166 -81.5t-133 -28.5q-59 0 -108.5 19t-84.5 53t-55 81t-20 103zM193 1237l14 16q39 45 67.5 74t50 44t39 21.5t35.5 6.5q16 0 66 -15q14 -4 24.5 -8t14.5 -6l119 -55q39 -18 61 -19q23 0 48.5 14.5t72.5 55.5l12 10 l51 -53q-59 -82 -111 -125t-89 -43q-16 0 -34 3t-30 9l-37 19l-118 51q-31 14 -43.5 17t-24.5 3q-51 0 -135 -79zM319 279q0 -72 47.5 -114t125.5 -42q61 0 135 22v318l-27 -4l-92 -21q-55 -12 -92 -25.5t-58.5 -32t-30 -43t-8.5 -58.5z" />
<glyph unicode="&#xe4;" horiz-adv-x="1060" d="M66 236q0 190 194 241q68 16 154 29.5t213 23.5v240q0 86 -32 121t-110 35h-15t-32 -2q-4 0 -7 -1t-7 -1l-94 -189h-183v197q266 80 410 80q131 0 213 -45q29 -16 48.5 -35t30.5 -41.5t16 -53t5 -73.5v-545v-33q0 -37 66 -51l108 -27v-57l-20 -6l-90 -27q-70 -20 -90 -24 q-43 -12 -86 -12q-51 0 -79 24.5t-46 85.5q-88 -53 -166 -81.5t-133 -28.5q-59 0 -108.5 19t-84.5 53t-55 81t-20 103zM225 1274q0 115 111 115q113 0 113 -113q0 -111 -113 -111q-111 0 -111 109zM319 279q0 -72 47.5 -114t125.5 -42q61 0 135 22v318l-27 -4l-92 -21 q-55 -12 -92 -25.5t-58.5 -32t-30 -43t-8.5 -58.5zM612 1278q0 111 115 111q109 0 109 -109q0 -115 -113 -115q-111 0 -111 113z" />
<glyph unicode="&#xe5;" horiz-adv-x="1060" d="M66 236q0 193 196 241q66 16 152 29.5t213 23.5v240q0 86 -32 121t-110 35h-14t-33 -2q-4 0 -7 -1t-7 -1l-94 -189h-183v197q266 80 410 80q131 0 213 -45q29 -16 48.5 -35t30.5 -41.5t16 -53t5 -73.5v-545v-33q0 -37 66 -51l108 -27v-57l-20 -6l-90 -27q-70 -20 -90 -24 q-43 -12 -86 -12q-51 0 -79 24.5t-46 85.5q-88 -53 -165 -81.5t-132 -28.5q-59 0 -108.5 19t-85.5 53t-56 81t-20 103zM252 1264q0 92 64.5 134t205.5 40q141 0 205 -41t64 -133t-64 -133t-205 -41t-205.5 40.5t-64.5 133.5zM319 279q0 -72 47.5 -114t125.5 -42q61 0 135 22 v318l-27 -4l-92 -21q-55 -12 -92 -25.5t-58.5 -32t-30 -43t-8.5 -58.5zM414 1262q0 -100 102 -101q53 0 83 28t30 75t-29 74.5t-76 27.5q-53 0 -81.5 -27.5t-28.5 -76.5z" />
<glyph unicode="&#xe6;" horiz-adv-x="1548" d="M66 233q0 188 196 242q33 8 65.5 15.5t70.5 12.5t85 11t109 12l35 4v236q0 88 -33 120t-123 32h-35h-12l-92 -185h-185v197l27 8l119 31q86 23 149.5 32t122.5 9q82 0 142.5 -19.5t111.5 -60.5q63 41 127 60.5t141 19.5q248 0 345 -172q18 -35 30.5 -66t19.5 -65.5 t9 -79.5t2 -107h-637q2 -53 7 -91t14.5 -68.5t23.5 -57.5t37 -55q104 -135 295 -135q49 0 111.5 7t119.5 23l17 -77l-25 -9q-137 -47 -227 -62t-166 -15q-219 0 -352 157q-86 -78 -180.5 -117.5t-188.5 -39.5q-59 0 -109.5 19t-87 53t-58 80t-21.5 101zM319 272 q0 -66 41 -107.5t107 -41.5q35 0 81 14.5t79 36.5v289l-25 -6l-94 -19q-104 -20 -146.5 -57t-42.5 -109zM856 592l371 37q-4 158 -44 228.5t-126 70.5q-98 0 -144.5 -78t-56.5 -258z" />
<glyph unicode="&#xe7;" horiz-adv-x="933" d="M66 467q0 123 39.5 222t113.5 171t177.5 111t230.5 39q66 0 135 -11.5t160 -33.5v-232h-172l-95 189h-16q-68 0 -124 -30t-97 -84t-64.5 -128t-23.5 -160q0 -199 100 -303t287 -104q41 0 81 2t93 18l22 6l15 -80q-115 -35 -197 -53t-151 -24v-39q78 -4 126 -42t48 -98 q0 -47 -29 -92t-80 -76q-45 -31 -96 -49q-8 -4 -30.5 -11t-63.5 -24q-4 -2 -10.5 -3t-14.5 -5l-27 66q82 45 119 88t37 92q0 57 -61 78v115q-98 6 -177 45t-136.5 102.5t-88 149.5t-30.5 188z" />
<glyph unicode="&#xe8;" horiz-adv-x="1021" d="M66 471q0 117 35.5 215t100 170t152.5 113t193 41q260 0 352 -174q18 -33 29.5 -64t18.5 -65.5t10.5 -79.5t5.5 -107h-639q0 -193 99 -300t277 -107q90 0 232 30l14 -75q-125 -43 -229.5 -65.5t-177.5 -22.5q-109 0 -196 34.5t-148.5 98t-95 154.5t-33.5 204zM272 1430 h285l246 -306h-129zM326 590l366 35q-4 164 -42 233.5t-128 69.5q-96 0 -146 -86t-50 -252z" />
<glyph unicode="&#xe9;" horiz-adv-x="1021" d="M66 471q0 117 35.5 215t100 170t152.5 113t193 41q260 0 352 -174q18 -33 29.5 -64t18.5 -65.5t10.5 -79.5t5.5 -107h-639q0 -193 99 -300t277 -107q90 0 232 30l14 -75q-125 -43 -229.5 -65.5t-177.5 -22.5q-109 0 -196 34.5t-148.5 98t-95 154.5t-33.5 204zM272 1124 l246 306h285l-402 -306h-129zM326 590l366 35q-4 164 -42 233.5t-128 69.5q-96 0 -146 -86t-50 -252z" />
<glyph unicode="&#xea;" horiz-adv-x="1021" d="M66 471q0 117 35.5 215t100 170t152.5 113t193 41q260 0 352 -174q18 -33 29.5 -64t18.5 -65.5t10.5 -79.5t5.5 -107h-639q0 -193 99 -300t277 -107q90 0 232 30l14 -75q-125 -43 -229.5 -65.5t-177.5 -22.5q-109 0 -196 34.5t-148.5 98t-95 154.5t-33.5 204zM201 1110 l334 334l342 -334h-148l-194 111l-187 -111h-147zM326 590l366 35q-4 164 -42 233.5t-128 69.5q-96 0 -146 -86t-50 -252z" />
<glyph unicode="&#xeb;" horiz-adv-x="1021" d="M66 471q0 117 35.5 215t100 170t152.5 113t193 41q260 0 352 -174q18 -33 29.5 -64t18.5 -65.5t10.5 -79.5t5.5 -107h-639q0 -193 99 -300t277 -107q90 0 232 30l14 -75q-125 -43 -229.5 -65.5t-177.5 -22.5q-109 0 -196 34.5t-148.5 98t-95 154.5t-33.5 204zM231 1274 q0 115 113 115t113 -113q0 -111 -113 -111t-113 109zM326 590l366 35q-4 164 -42 233.5t-128 69.5q-96 0 -146 -86t-50 -252zM618 1278q0 53 31 82t86 29q109 0 109 -109q0 -115 -113 -115t-113 113z" />
<glyph unicode="&#xec;" horiz-adv-x="677" d="M55 0v57l174 72v711l-174 51v55l428 76v-893l174 -72v-57h-602zM74 1430h284l246 -306h-129z" />
<glyph unicode="&#xed;" horiz-adv-x="677" d="M55 0v57l174 72v711l-174 51v55l428 76v-893l174 -72v-57h-602zM74 1124l245 306h285l-399 -306h-131z" />
<glyph unicode="&#xee;" horiz-adv-x="677" d="M2 1110l334 334l342 -334h-148l-194 111l-186 -111h-148zM55 0v57l174 72v711l-174 51v55l428 76v-893l174 -72v-57h-602z" />
<glyph unicode="&#xef;" horiz-adv-x="677" d="M20 1274q0 115 111 115q113 0 113 -113q0 -111 -111 -111q-113 0 -113 109zM55 0v57l174 72v711l-174 51v55l428 76v-893l174 -72v-57h-602zM408 1278q0 111 116 111q106 0 107 -109q0 -115 -113 -115q-111 0 -110 113z" />
<glyph unicode="&#xf1;" horiz-adv-x="1275" d="M55 0v57l174 72v711l-174 49v55l418 76v-115l21 8l100 37q45 16 73.5 26.5t41.5 14.5q53 16 116 17q66 0 111 -20.5t82 -65.5q20 -25 32.5 -49.5t20.5 -53t11 -65.5t3 -88v-537l172 -72v-57h-548v57l131 72v473q0 74 -10.5 123t-34 77.5t-62.5 41t-98 12.5q-45 0 -77 -3 t-85 -13v-711l154 -72v-57h-572zM299 1237l16 16l71 71t48.5 44t36.5 23.5t35 7.5q16 0 65 -15q14 -4 24.5 -8t16.5 -6l119 -55q37 -18 62 -19q23 0 47 14.5t73 55.5l13 10l51 -53q-61 -82 -113.5 -125t-89.5 -43q-16 0 -32.5 3t-28.5 9l-37 19l-119 51q-31 14 -44.5 17 t-23.5 3q-51 0 -137 -79z" />
<glyph unicode="&#xf2;" horiz-adv-x="1177" d="M66 469q0 121 38.5 221.5t108.5 171t168 109.5t219 39q117 0 212 -36t161.5 -101.5t103.5 -158.5t37 -208q0 -121 -39 -219.5t-108.5 -169t-168.5 -109.5t-218 -39q-117 0 -211.5 36t-162 101.5t-104 157.5t-36.5 205zM324 1430h284l246 -306h-129zM340 512 q0 -209 66.5 -324.5t185.5 -115.5t183.5 104.5t64.5 296.5q0 207 -67.5 326t-184.5 119t-182.5 -106.5t-65.5 -299.5z" />
<glyph unicode="&#xf3;" horiz-adv-x="1177" d="M66 469q0 121 38.5 221.5t108.5 171t168 109.5t219 39q117 0 212 -36t161.5 -101.5t103.5 -158.5t37 -208q0 -121 -39 -219.5t-108.5 -169t-168.5 -109.5t-218 -39q-117 0 -211.5 36t-162 101.5t-104 157.5t-36.5 205zM324 1124l245 306h285l-401 -306h-129zM340 512 q0 -209 66.5 -324.5t185.5 -115.5t183.5 104.5t64.5 296.5q0 207 -67.5 326t-184.5 119t-182.5 -106.5t-65.5 -299.5z" />
<glyph unicode="&#xf4;" horiz-adv-x="1177" d="M66 469q0 121 38.5 221.5t108.5 171t168 109.5t219 39q117 0 212 -36t161.5 -101.5t103.5 -158.5t37 -208q0 -121 -39 -219.5t-108.5 -169t-168.5 -109.5t-218 -39q-117 0 -211.5 36t-162 101.5t-104 157.5t-36.5 205zM252 1110l334 334l340 -334h-146l-194 111 l-189 -111h-145zM340 512q0 -209 66.5 -324.5t185.5 -115.5t183.5 104.5t64.5 296.5q0 207 -67.5 326t-184.5 119t-182.5 -106.5t-65.5 -299.5z" />
<glyph unicode="&#xf5;" horiz-adv-x="1177" d="M66 469q0 121 38.5 221.5t108.5 171t168 109.5t219 39q117 0 212 -36t161.5 -101.5t103.5 -158.5t37 -208q0 -121 -39 -219.5t-108.5 -169t-168.5 -109.5t-218 -39q-117 0 -211.5 36t-162 101.5t-104 157.5t-36.5 205zM250 1237l16 16l71 71t48.5 44t36.5 23.5t35 7.5 q16 0 65 -15q16 -4 25.5 -8t15.5 -6l119 -55q37 -18 61 -19q23 0 48.5 14.5t72.5 55.5l13 10l51 -53q-61 -82 -113.5 -125t-89.5 -43q-16 0 -32.5 3t-28.5 9l-37 19l-119 51q-31 14 -44.5 17t-23.5 3q-51 0 -137 -79zM340 512q0 -209 66.5 -324.5t185.5 -115.5t183.5 104.5 t64.5 296.5q0 207 -67.5 326t-184.5 119t-182.5 -106.5t-65.5 -299.5z" />
<glyph unicode="&#xf6;" horiz-adv-x="1177" d="M66 469q0 121 38.5 221.5t108.5 171t168 109.5t219 39q117 0 212 -36t161.5 -101.5t103.5 -158.5t37 -208q0 -121 -39 -219.5t-108.5 -169t-168.5 -109.5t-218 -39q-117 0 -211.5 36t-162 101.5t-104 157.5t-36.5 205zM283 1274q0 115 112 115q113 0 113 -113 q0 -111 -113 -111t-112 109zM340 512q0 -209 66.5 -324.5t185.5 -115.5t183.5 104.5t64.5 296.5q0 207 -67.5 326t-184.5 119t-182.5 -106.5t-65.5 -299.5zM670 1278q0 111 116 111q109 0 109 -109q0 -115 -113 -115t-112 113z" />
<glyph unicode="&#xf7;" d="M68 610v146h888v-146h-888zM408 311q0 43 30.5 74t73.5 31t73.5 -31t30.5 -74t-30.5 -73.5t-73.5 -30.5t-73.5 30.5t-30.5 73.5zM408 1055q0 43 30.5 73.5t73.5 30.5t73.5 -30.5t30.5 -73.5t-30.5 -74t-73.5 -31t-73.5 31t-30.5 74z" />
<glyph unicode="&#xf8;" horiz-adv-x="1177" d="M66 473q0 121 37.5 220.5t108.5 170t170 108.5t220 38q27 0 48.5 -1t42 -4.5t42 -8.5t51.5 -13l68 129l92 -47l-63 -125q41 -27 69.5 -49.5t49 -47t36 -51t31.5 -63.5q23 -53 34 -109.5t11 -115.5q0 -121 -39 -219.5t-110.5 -168t-171 -108.5t-222.5 -39q-27 0 -46 1 t-37.5 4t-39 7.5t-47.5 12.5l-59 -117l-90 47l55 111q-53 33 -80.5 54.5t-56.5 55.5q-51 61 -77.5 145.5t-26.5 182.5zM340 518q0 -98 13.5 -171t41.5 -138l332 651q-41 35 -67.5 46.5t-71.5 11.5q-119 0 -183.5 -103.5t-64.5 -296.5zM461 115q37 -27 62.5 -35t66.5 -8 q121 0 185.5 104.5t64.5 298.5q0 88 -11.5 152.5t-40.5 130.5z" />
<glyph unicode="&#xf9;" horiz-adv-x="1245" d="M16 893v55l428 74v-633q0 -74 10.5 -124t34 -78.5t63.5 -41t99 -12.5q41 0 69 4t75 10l16 3v692l-172 51v55l418 74v-868l172 -48v-57l-418 -82v121l-18 -8q-72 -33 -124.5 -52.5t-92 -30.5t-70.5 -14t-57 -3q-57 0 -109.5 22.5t-85.5 63.5q-37 45 -50.5 100t-13.5 160 v516zM358 1430h285l246 -306h-131z" />
<glyph unicode="&#xfa;" horiz-adv-x="1245" d="M16 893v55l428 74v-633q0 -74 10.5 -124t34 -78.5t63.5 -41t99 -12.5q41 0 69 4t75 10l16 3v692l-172 51v55l418 74v-868l172 -48v-57l-418 -82v121l-18 -8q-72 -33 -124.5 -52.5t-92 -30.5t-70.5 -14t-57 -3q-57 0 -109.5 22.5t-85.5 63.5q-37 45 -50.5 100t-13.5 160 v516zM385 1124l246 306h284l-401 -306h-129z" />
<glyph unicode="&#xfb;" horiz-adv-x="1245" d="M16 893v55l428 74v-633q0 -74 10.5 -124t34 -78.5t63.5 -41t99 -12.5q41 0 69 4t75 10l16 3v692l-172 51v55l418 74v-868l172 -48v-57l-418 -82v121l-18 -8q-72 -33 -124.5 -52.5t-92 -30.5t-70.5 -14t-57 -3q-57 0 -109.5 22.5t-85.5 63.5q-37 45 -50.5 100t-13.5 160 v516zM285 1110l336 334l340 -334h-146l-194 111l-189 -111h-147z" />
<glyph unicode="&#xfc;" horiz-adv-x="1245" d="M16 893v55l428 74v-633q0 -74 10.5 -124t34 -78.5t63.5 -41t99 -12.5q41 0 69 4t75 10l16 3v692l-172 51v55l418 74v-868l172 -48v-57l-418 -82v121l-18 -8q-72 -33 -124.5 -52.5t-92 -30.5t-70.5 -14t-57 -3q-57 0 -109.5 22.5t-85.5 63.5q-37 45 -50.5 100t-13.5 160 v516zM317 1274q0 115 111 115q113 0 113 -113q0 -111 -111 -111q-113 0 -113 109zM705 1278q0 111 116 111q51 0 80 -28t29 -81q0 -115 -113 -115t-112 113z" />
<glyph unicode="&#xff;" horiz-adv-x="1011" d="M-43 942v57h530v-57l-141 -53l160 -432q2 -6 9 -26.5t17 -55.5q10 -27 15.5 -43.5t7.5 -24.5q2 -4 3 -11t5 -17l215 598l-137 65v57h408v-57l-127 -72l-412 -1020q-29 -70 -47.5 -111.5t-35.5 -68t-36.5 -43t-48.5 -35.5q-84 -51 -201 -51q-100 0 -164 19v196h166 l37 -123q68 10 114 57.5t87 151.5l59 152l-362 895zM227 1274q0 115 111 115q115 0 115 -113q0 -111 -113 -111t-113 109zM614 1278q0 111 117 111q51 0 80 -28t29 -81q0 -115 -113 -115t-113 113z" />
<glyph unicode="&#x152;" horiz-adv-x="1849" d="M59 649q0 162 51.5 297t142.5 233.5t218 152.5t281 54q109 0 188 -20h801v-328h-80l-102 236h-390v-531h318l72 185h79v-459h-79l-72 172h-318v-549h406l115 234h88l-27 -326h-868q-33 -10 -89.5 -15t-111.5 -5q-135 0 -250 50t-197.5 139t-129 212t-46.5 268zM334 696 q0 -135 29.5 -248.5t83 -194.5t127 -126t163.5 -45q98 0 168 45v1112q-39 23 -78 34t-86 11q-92 0 -166.5 -42t-129 -118.5t-83 -185.5t-28.5 -242z" />
<glyph unicode="&#x153;" horiz-adv-x="1755" d="M66 485q0 119 36.5 216.5t106.5 166t168 105.5t219 37q227 0 362 -133q63 68 144.5 100.5t189.5 32.5q248 0 344 -174q18 -35 30.5 -65t19 -64.5t9.5 -78.5t3 -108h-639q10 -408 389 -407q55 0 107.5 6t111.5 22l16 -75q-262 -86 -426 -86q-98 0 -173.5 30.5 t-147.5 100.5q-76 -68 -164 -99.5t-201 -31.5q-115 0 -208 36.5t-158.5 102t-102 159t-36.5 207.5zM330 532q0 -217 65.5 -333.5t188.5 -116.5q117 0 181 102.5t64 290.5q0 213 -66 333t-185 120q-117 0 -182.5 -104.5t-65.5 -291.5zM1061 590l369 37q-4 158 -43 224.5 t-127 66.5q-98 0 -146.5 -80t-52.5 -248z" />
<glyph unicode="&#x178;" horiz-adv-x="1173" d="M-88 1309v57h602v-57l-147 -68l280 -453l295 453l-143 68v57h458v-57l-159 -68l-381 -561v-551l225 -72v-57h-715v55l226 74v500l-387 612zM319 1597q0 115 111 115q115 0 115 -115q0 -53 -30 -81.5t-83 -28.5q-113 0 -113 110zM707 1599q0 113 116 113q51 0 80 -28.5 t29 -81.5q0 -115 -113 -115t-112 112z" />
<glyph unicode="&#x2c6;" d="M174 1110l336 334l340 -334h-148l-192 111l-188 -111h-148z" />
<glyph unicode="&#x2dc;" d="M174 1237l14 16q39 45 68 74t50.5 44t38.5 21.5t36 6.5q16 0 65 -15q14 -4 24.5 -8t14.5 -6l119 -55q39 -18 64 -19q23 0 47 14.5t73 55.5l11 10l51 -53q-59 -82 -111.5 -125t-89.5 -43q-16 0 -33.5 3t-29.5 9l-37 19l-119 51q-29 12 -42.5 16t-25.5 4q-51 0 -135 -79z " />
<glyph unicode="&#x2000;" horiz-adv-x="892" />
<glyph unicode="&#x2001;" horiz-adv-x="1784" />
<glyph unicode="&#x2002;" horiz-adv-x="892" />
<glyph unicode="&#x2003;" horiz-adv-x="1784" />
<glyph unicode="&#x2004;" horiz-adv-x="594" />
<glyph unicode="&#x2005;" horiz-adv-x="446" />
<glyph unicode="&#x2006;" horiz-adv-x="297" />
<glyph unicode="&#x2007;" horiz-adv-x="297" />
<glyph unicode="&#x2008;" horiz-adv-x="223" />
<glyph unicode="&#x2009;" horiz-adv-x="356" />
<glyph unicode="&#x200a;" horiz-adv-x="99" />
<glyph unicode="&#x2010;" horiz-adv-x="489" d="M20 449v182h447v-182h-447z" />
<glyph unicode="&#x2011;" horiz-adv-x="489" d="M20 449v182h447v-182h-447z" />
<glyph unicode="&#x2012;" horiz-adv-x="489" d="M20 449v182h447v-182h-447z" />
<glyph unicode="&#x2013;" d="M68 610v146h888v-146h-888z" />
<glyph unicode="&#x2014;" horiz-adv-x="1525" d="M59 469v143h1407v-143h-1407z" />
<glyph unicode="&#x2018;" horiz-adv-x="419" d="M68 1092q0 233 247 294l27 -75q-72 -33 -99.5 -69t-29.5 -101q10 2 17.5 2h11.5q49 0 80.5 -31t31.5 -80q0 -57 -36.5 -91t-100.5 -34q-72 0 -110.5 48.5t-38.5 136.5z" />
<glyph unicode="&#x2019;" horiz-adv-x="423" d="M68 1262q0 57 36.5 90.5t100.5 33.5q72 0 110.5 -47t38.5 -137q0 -236 -248 -293l-26 76q72 31 99.5 66.5t29.5 101.5q-10 -2 -17.5 -2h-11.5q-49 0 -80.5 30.5t-31.5 80.5z" />
<glyph unicode="&#x201a;" horiz-adv-x="423" d="M68 111q0 57 36.5 89.5t102.5 32.5q72 0 109.5 -47t37.5 -135q0 -238 -248 -295l-26 76q72 33 99.5 69t29.5 101q-10 -2 -17.5 -2h-11.5q-49 0 -80.5 30.5t-31.5 80.5z" />
<glyph unicode="&#x201c;" horiz-adv-x="811" d="M68 1092q0 233 247 294l27 -75q-72 -33 -99.5 -69t-29.5 -101q10 2 17.5 2h11.5q49 0 80.5 -31t31.5 -80q0 -57 -36.5 -91t-100.5 -34q-72 0 -110.5 48.5t-38.5 136.5zM455 1092q0 233 247 294l29 -75q-74 -33 -101.5 -69t-29.5 -101q10 2 17.5 2h11.5q49 0 80.5 -31 t31.5 -80q0 -57 -36.5 -91t-100.5 -34q-72 0 -110.5 48.5t-38.5 136.5z" />
<glyph unicode="&#x201d;" horiz-adv-x="811" d="M68 1262q0 57 36.5 90.5t102.5 33.5q72 0 109.5 -48t37.5 -136q0 -236 -248 -293l-26 76q37 14 60.5 30.5t39 36t22.5 44t9 57.5q-10 -2 -18.5 -2h-12.5q-49 0 -80.5 30.5t-31.5 80.5zM455 1262q0 57 36.5 90.5t102.5 33.5q72 0 109.5 -47t37.5 -137q0 -236 -247 -293 l-27 76q37 14 60.5 30.5t39 36t22.5 44t9 57.5q-10 -2 -18.5 -2h-12.5q-49 0 -80.5 30.5t-31.5 80.5z" />
<glyph unicode="&#x201e;" horiz-adv-x="811" d="M68 111q0 57 36.5 89.5t102.5 32.5q72 0 109.5 -47t37.5 -135q0 -238 -248 -295l-26 76q37 16 60.5 32.5t39 36t22.5 44t9 57.5q-10 -2 -18.5 -2h-12.5q-49 0 -80.5 30.5t-31.5 80.5zM455 111q0 57 36.5 89.5t102.5 32.5q72 0 109.5 -47t37.5 -135q0 -238 -247 -295 l-27 76q37 16 60.5 32.5t39 36t22.5 44t9 57.5q-10 -2 -18.5 -2h-12.5q-49 0 -80.5 30.5t-31.5 80.5z" />
<glyph unicode="&#x2022;" horiz-adv-x="1366" d="M401 696q0 59 22.5 111.5t60.5 91.5t89.5 61.5t110.5 22.5q57 0 108.5 -22.5t89.5 -61.5t60.5 -91t22.5 -112q0 -59 -22.5 -111.5t-60.5 -91t-89.5 -61t-108.5 -22.5q-59 0 -110.5 22.5t-89.5 61t-60.5 91t-22.5 111.5z" />
<glyph unicode="&#x2026;" horiz-adv-x="1349" d="M117 106q0 127 135 127q74 0 107.5 -30.5t33.5 -98.5q0 -124 -135 -124q-76 0 -108.5 29.5t-32.5 96.5zM567 106q0 127 135 127q72 0 106 -30.5t34 -98.5q0 -124 -133 -124q-78 0 -110 29.5t-32 96.5zM1018 106q0 127 135 127q72 0 105.5 -30.5t33.5 -98.5 q0 -124 -133 -124q-78 0 -109.5 29.5t-31.5 96.5z" />
<glyph unicode="&#x202f;" horiz-adv-x="356" />
<glyph unicode="&#x2039;" horiz-adv-x="468" d="M49 502l221 395h136l-226 -395l226 -379h-136z" />
<glyph unicode="&#x203a;" horiz-adv-x="468" d="M68 123l225 395l-225 379h135l221 -379l-221 -395h-135z" />
<glyph unicode="&#x205f;" horiz-adv-x="446" />
<glyph unicode="&#x2122;" horiz-adv-x="1695" d="M16 1145v221h652v-221h-50l-59 162h-141v-648l127 -38v-33h-406v33l127 38v648h-143l-57 -162h-50zM696 588v33l101 38v633l-101 41v33h262l224 -539l223 539h250v-33l-99 -41v-633l99 -38v-33h-342v33l92 38v535l-252 -612h-29l-252 612v-535l93 -38v-33h-269z" />
<glyph unicode="&#xe000;" horiz-adv-x="1003" d="M0 0v1004h1004v-1004h-1004z" />
<glyph unicode="&#xfb01;" horiz-adv-x="1275" d="M45 0v57l174 72v768h-153v102h153v29q0 205 126 312.5t370 107.5q92 0 167.5 -14.5t135.5 -40.5q43 -20 60.5 -48t17.5 -77q0 -53 -37 -84t-103 -31q-39 0 -65.5 7t-49 27.5t-44 58.5t-47.5 102q-16 2 -23.5 2h-15.5q-127 0 -182.5 -57.5t-55.5 -188.5v-105h457l145 17 v-887l182 -72v-57h-569v57l141 72v768h-356v-768l143 -72v-57h-571z" />
<glyph unicode="&#xfb02;" horiz-adv-x="1290" d="M45 0v57l174 72v768h-153v102h153v43q0 188 125 297t342 109h399v-1319l185 -72v-57h-572v57l144 72v1131l-146 98q-117 -2 -170 -58.5t-53 -183.5v-117h256v-102h-256v-768l143 -72v-57h-571z" />
</font>
</defs>
</svg>
